<svg width="286" height="221" viewBox="0 0 286 218" fill="none" xmlns="http://www.w3.org/2000/svg">
<path d="M285.929 201.37V207.76C285.919 211.13 285.919 214.51 285.919 217.88H27.6395L0.979492 217.89V201.55H7.08949V204.5L7.24948 201.55L7.77948 191.39H38.9195V187.28H48.5995V174.95H47.1995V162.57C47.1995 162.42 47.2295 162.28 47.2795 162.16C47.3595 161.97 47.4995 161.8 47.6595 161.69C47.8295 161.57 48.0395 161.51 48.2595 161.51H48.3695C48.5895 161.51 48.7895 161.57 48.9595 161.69C49.1295 161.8 49.2595 161.97 49.3395 162.16C49.3995 162.28 49.4295 162.42 49.4295 162.57V162.86H49.8295V162.57C49.8295 162.42 49.8595 162.28 49.9095 162.16C49.9995 161.97 50.1295 161.8 50.2995 161.69C50.4695 161.57 50.6695 161.51 50.8895 161.51H50.9995C51.2195 161.51 51.4295 161.57 51.5895 161.69C51.7595 161.8 51.8995 161.97 51.9795 162.16C52.0295 162.28 52.0595 162.42 52.0595 162.57V162.86H52.4695V162.57C52.4695 162.42 52.4995 162.28 52.5495 162.16C52.6295 161.97 52.7695 161.8 52.9295 161.69C53.0995 161.57 53.3095 161.51 53.5295 161.51H53.6395C53.8595 161.51 54.0595 161.57 54.2295 161.69C54.5095 161.88 54.6995 162.2 54.6995 162.57V162.86H55.0995V162.57C55.0995 162.42 55.1295 162.28 55.1795 162.16C55.2695 161.97 55.3995 161.8 55.5695 161.69C55.7395 161.57 55.9395 161.51 56.1595 161.51H56.2695C56.4195 161.51 56.5595 161.54 56.6795 161.59C57.0595 161.75 57.3295 162.13 57.3295 162.57V162.86H57.7395V162.57C57.7395 162.42 57.7695 162.28 57.8195 162.16C57.8995 161.97 58.0295 161.8 58.1995 161.69C58.3695 161.57 58.5795 161.51 58.7995 161.51H58.9095C59.1295 161.51 59.3295 161.57 59.4995 161.69C59.6695 161.8 59.7995 161.97 59.8795 162.16C59.9395 162.28 59.9695 162.42 59.9695 162.57V162.86H60.5895V150.58H60.6695V150.28C60.6695 149.92 60.8595 149.59 61.1395 149.4C61.3095 149.29 61.5095 149.22 61.7295 149.22H61.8395C62.0595 149.22 62.2695 149.29 62.4295 149.4C62.7195 149.59 62.8995 149.92 62.8995 150.28V150.58H63.3095V150.28C63.3095 149.92 63.4895 149.59 63.7695 149.4C63.9395 149.29 64.1495 149.22 64.3695 149.22H64.4795C64.6995 149.22 64.8995 149.29 65.0695 149.4C65.3495 149.59 65.5395 149.92 65.5395 150.28V150.58H65.9395V150.28C65.9395 150.2 65.9495 150.13 65.9695 150.05C65.9695 150.03 65.9795 150.02 65.9795 150C65.9995 149.95 66.0195 149.89 66.0395 149.84C66.0395 149.83 66.0495 149.83 66.0495 149.82V119.81H64.5095V114.56H68.0095V78.0698H67.9895V76.5398H66.7995V71.2898H70.1895V34.9698H70.1795V33.4398H69.2995V28.1898H70.1895V27.4398H70.8195V25.6798H71.1095V25.4098H71.9595V24.2998H72.0895V17.3498H71.9595V16.2098H71.6495V13.4398H71.9595V11.3298C71.9595 11.3298 71.9595 11.3098 71.9595 11.2898C71.9595 11.1398 71.9795 10.9798 71.9995 10.8298C72.0095 10.8198 72.0095 10.8098 72.0095 10.7998C72.0395 10.6398 72.0795 10.4898 72.1295 10.3398C72.1395 10.3098 72.1495 10.2898 72.1595 10.2698C72.2695 9.96981 72.4195 9.6998 72.5995 9.4498C72.6195 9.4298 72.6295 9.4098 72.6495 9.3898C72.7395 9.2698 72.8395 9.1598 72.9495 9.0498L72.9795 9.01981C73.0895 8.91981 73.1995 8.82979 73.3095 8.74979C73.3295 8.73979 73.3395 8.71981 73.3595 8.70981C73.4895 8.61981 73.6095 8.5498 73.7495 8.4798C73.7695 8.4698 73.7995 8.44979 73.8195 8.43979C73.9495 8.37979 74.0895 8.31981 74.2295 8.26981H74.2495C74.2495 8.26981 74.2595 8.2598 74.2695 8.2598C74.2795 8.2598 74.2795 8.25979 74.2895 8.24979C74.4195 8.19979 74.5495 8.14978 74.6795 8.11978V7.80978H74.7695L74.9395 6.5098L74.9695 6.2998H75.0395V5.36978H75.1295V5.14978C75.1295 5.14978 75.1195 5.1498 75.1095 5.1398C75.0895 5.1398 75.0695 5.1198 75.0495 5.1098C75.0195 5.0998 74.9995 5.07979 74.9795 5.06979C74.9595 5.04979 74.9395 5.03981 74.9295 5.01981C74.9095 4.98981 74.8895 4.96979 74.8795 4.93979C74.8695 4.91979 74.8595 4.9098 74.8495 4.8898C74.8295 4.8398 74.8195 4.7898 74.8195 4.7298C74.8195 4.6798 74.8295 4.6298 74.8495 4.5798C74.8595 4.5598 74.8695 4.54979 74.8795 4.52979C74.8895 4.49979 74.9095 4.4698 74.9295 4.4498C74.9395 4.4298 74.9595 4.41978 74.9795 4.39978C74.9995 4.38978 75.0195 4.3698 75.0495 4.3598C75.0695 4.3398 75.0895 4.32979 75.1095 4.31979H75.1295V4.18979C75.1295 4.18979 75.1195 4.17981 75.1095 4.17981C75.0895 4.17981 75.0695 4.15978 75.0495 4.14978C75.0195 4.12978 74.9995 4.11979 74.9795 4.09979C74.9595 4.08979 74.9395 4.06978 74.9295 4.05978C74.9095 4.02978 74.8895 3.9998 74.8795 3.9798C74.8695 3.9598 74.8595 3.94981 74.8495 3.92981C74.8295 3.87981 74.8195 3.82981 74.8195 3.76981C74.8195 3.71981 74.8295 3.6598 74.8495 3.6098C74.8595 3.5998 74.8695 3.57979 74.8795 3.56979C74.8895 3.53979 74.9095 3.50981 74.9295 3.48981C74.9395 3.46981 74.9595 3.44979 74.9795 3.43979C74.9995 3.41979 75.0195 3.4098 75.0495 3.3898C75.0695 3.3798 75.0895 3.3698 75.1095 3.3598C75.1195 3.3598 75.1295 3.34979 75.1295 3.34979V3.1698H75.1895V1.83978L75.2095 1.30978L75.2295 0.779785H75.2795L75.3195 1.83978V3.1698H75.3795V3.34979C75.3795 3.34979 75.3895 3.3598 75.3995 3.3598C75.4195 3.3598 75.4495 3.3798 75.4695 3.3898C75.4895 3.4098 75.5095 3.41979 75.5295 3.43979C75.5495 3.44979 75.5695 3.46981 75.5795 3.48981C75.5995 3.50981 75.6195 3.53979 75.6395 3.56979C75.6395 3.57979 75.6595 3.5998 75.6595 3.6098C75.6795 3.6598 75.6895 3.71981 75.6895 3.76981C75.6895 3.82981 75.6795 3.87981 75.6595 3.92981C75.6595 3.94981 75.6495 3.9598 75.6395 3.9798C75.6195 3.9998 75.5995 4.02978 75.5795 4.05978C75.5695 4.06978 75.5495 4.08979 75.5295 4.09979C75.5095 4.11979 75.4895 4.12978 75.4695 4.14978C75.4495 4.15978 75.4195 4.16981 75.3995 4.17981C75.3995 4.17981 75.3995 4.18979 75.3795 4.18979V4.31979H75.3995C75.3995 4.31979 75.4495 4.3398 75.4695 4.3598C75.4895 4.3598 75.5095 4.38978 75.5295 4.39978C75.5495 4.41978 75.5695 4.4298 75.5795 4.4498C75.5995 4.4698 75.6195 4.49979 75.6395 4.52979C75.6395 4.54979 75.6595 4.5598 75.6595 4.5798C75.6795 4.6298 75.6895 4.6798 75.6895 4.7298C75.6895 4.7898 75.6795 4.8398 75.6595 4.8898C75.6595 4.9098 75.6495 4.91979 75.6395 4.93979C75.6195 4.96979 75.5995 4.98981 75.5795 5.01981C75.5695 5.03981 75.5495 5.04979 75.5295 5.06979C75.5095 5.07979 75.4895 5.0998 75.4695 5.1098C75.4495 5.1098 75.4195 5.1398 75.3995 5.1398C75.3995 5.1398 75.3928 5.14311 75.3795 5.14978V5.36978H75.4795V6.2998H75.5495L75.7395 7.80978H75.8295V8.11978C75.9795 8.15978 76.1095 8.2098 76.2495 8.2598C76.2595 8.2698 76.2695 8.26981 76.2795 8.26981C76.2895 8.27981 76.2995 8.27979 76.3095 8.27979C76.4495 8.32979 76.5795 8.3898 76.7095 8.4498C76.7295 8.4598 76.7495 8.4698 76.7695 8.4798C76.9095 8.5498 77.0395 8.62979 77.1595 8.71979C77.1795 8.72979 77.1995 8.7398 77.2095 8.7598C77.3295 8.8398 77.4395 8.93979 77.5495 9.03979C77.5595 9.03979 77.5595 9.03978 77.5695 9.05978C77.6795 9.15978 77.7795 9.27978 77.8695 9.39978C77.8895 9.41978 77.8995 9.43981 77.9195 9.45981C78.0995 9.70981 78.2495 9.97981 78.3595 10.2698C78.3595 10.2998 78.3695 10.3198 78.3795 10.3398C78.4295 10.4898 78.4695 10.6398 78.4995 10.7998C78.5095 10.8098 78.5095 10.8198 78.5095 10.8398C78.5395 10.9798 78.5495 11.1398 78.5595 11.2898V13.4398H78.9095V16.2098H78.5995V17.3498H78.4695V24.2998H78.5995V25.4098H79.4495V25.6798H79.7395V27.4398H80.3695V28.1898H81.2595V33.4398H80.3695V71.2898H83.7595V76.5398H82.5495V114.56H86.0495V119.81H84.5095V149.77C84.5095 149.77 84.5095 149.75 84.5295 149.74C84.5695 149.68 84.6095 149.62 84.6595 149.56C84.6595 149.56 84.6661 149.553 84.6795 149.54C84.7395 149.48 84.7995 149.43 84.8795 149.39C84.8895 149.37 84.9095 149.37 84.9295 149.36C84.9895 149.32 85.0495 149.3 85.1095 149.28C85.1295 149.27 85.1495 149.26 85.1795 149.26C85.2595 149.24 85.3495 149.22 85.4395 149.22H85.5495C85.7695 149.22 85.9695 149.29 86.1395 149.4C86.4195 149.59 86.6095 149.92 86.6095 150.28V150.58H87.0095V150.28C87.0095 150 87.1195 149.75 87.2995 149.56C87.3095 149.55 87.3095 149.54 87.3195 149.53C87.3295 149.52 87.3395 149.52 87.3495 149.51C87.5395 149.33 87.7895 149.22 88.0695 149.22H88.1795C88.3995 149.22 88.6095 149.29 88.7695 149.4C89.0595 149.59 89.2395 149.92 89.2395 150.28V150.58H89.6495V150.28C89.6495 149.92 89.8295 149.59 90.1095 149.4C90.2795 149.29 90.4895 149.22 90.7095 149.22H90.8195C91.0395 149.22 91.2395 149.29 91.4095 149.4C91.6895 149.59 91.8795 149.92 91.8795 150.28V150.58H92.2795V150.28C92.2795 149.92 92.4695 149.59 92.7495 149.4C92.9195 149.29 93.1195 149.22 93.3395 149.22H93.4495C93.6695 149.22 93.8795 149.29 94.0395 149.4C94.3295 149.59 94.5095 149.92 94.5095 150.28V150.58H94.9195V150.28C94.9195 149.95 95.0695 149.66 95.3095 149.46C95.3895 149.4 95.4695 149.34 95.5595 149.31C95.6295 149.28 95.6895 149.26 95.7595 149.24C95.8295 149.24 95.8995 149.22 95.9795 149.22H96.0895C96.3095 149.22 96.5095 149.29 96.6795 149.4C96.9595 149.59 97.1495 149.92 97.1495 150.28V150.58H97.5495V150.28C97.5495 149.92 97.7395 149.59 98.0195 149.4C98.1895 149.29 98.3895 149.22 98.6095 149.22H98.7195C98.9395 149.22 99.1495 149.29 99.3095 149.4C99.5995 149.59 99.7795 149.92 99.7795 150.28V150.58H100.189V150.28C100.189 149.92 100.369 149.59 100.649 149.4C100.819 149.29 101.029 149.22 101.249 149.22H101.359C101.579 149.22 101.779 149.29 101.949 149.4C102.229 149.59 102.419 149.92 102.419 150.28V150.58H102.819V150.28C102.819 150 102.929 149.75 103.109 149.56C103.119 149.55 103.119 149.54 103.129 149.53C103.179 149.48 103.229 149.44 103.289 149.4C103.459 149.29 103.659 149.22 103.879 149.22H103.989C104.209 149.22 104.419 149.29 104.579 149.4C104.869 149.59 105.049 149.92 105.049 150.28V150.58H105.459V150.28C105.459 149.92 105.639 149.59 105.919 149.4C106.089 149.29 106.299 149.22 106.52 149.22H106.629V146.9H111.789V144.65H115.589V143.42H114.869V141.92H115.189V137.82H114.869V136.32H115.589V134.84H118.529L118.52 134.82C118.479 134.71 118.449 134.59 118.439 134.47C118.399 134.13 118.369 133.8 118.339 133.46C118.249 132.45 118.209 131.44 118.209 130.43C118.209 130.17 118.209 129.92 118.229 129.68C118.229 129.59 118.239 129.51 118.239 129.43C118.249 129.26 118.259 129.09 118.279 128.93C118.279 128.83 118.289 128.73 118.299 128.64C118.319 128.49 118.34 128.33 118.359 128.18C118.369 128.08 118.379 127.98 118.399 127.88C118.419 127.73 118.439 127.59 118.469 127.44C118.489 127.34 118.5 127.24 118.52 127.14C118.549 126.99 118.579 126.84 118.609 126.69C118.639 126.6 118.659 126.5 118.679 126.41C118.709 126.25 118.749 126.09 118.789 125.93C118.819 125.85 118.84 125.77 118.859 125.69C118.91 125.48 118.969 125.28 119.039 125.07C119.049 125.04 119.059 125 119.069 124.97C119.139 124.73 119.219 124.49 119.299 124.26C119.329 124.19 119.349 124.12 119.379 124.05C119.439 123.88 119.499 123.72 119.559 123.55C119.599 123.47 119.629 123.38 119.669 123.29C119.729 123.14 119.789 123 119.849 122.85C119.889 122.76 119.929 122.67 119.969 122.58C120.029 122.44 120.099 122.3 120.159 122.16C120.199 122.07 120.249 121.97 120.289 121.88C120.359 121.74 120.429 121.6 120.499 121.46C120.539 121.37 120.589 121.28 120.629 121.2C120.709 121.05 120.789 120.9 120.869 120.76C120.909 120.68 120.949 120.6 120.989 120.52C121.089 120.34 121.2 120.17 121.299 119.99C121.319 119.94 121.349 119.9 121.379 119.86C121.509 119.63 121.639 119.41 121.779 119.19C121.809 119.14 121.849 119.09 121.879 119.03C121.989 118.87 122.089 118.7 122.199 118.54C122.249 118.47 122.299 118.39 122.349 118.31C122.449 118.17 122.539 118.03 122.639 117.9C122.689 117.81 122.749 117.73 122.809 117.65C122.899 117.52 122.999 117.39 123.089 117.26C123.149 117.17 123.21 117.09 123.27 117.01C123.369 116.88 123.469 116.75 123.569 116.62C123.629 116.54 123.689 116.46 123.749 116.38C123.859 116.24 123.959 116.11 124.069 115.97C124.129 115.9 124.179 115.83 124.239 115.76C124.369 115.61 124.499 115.45 124.629 115.29C124.669 115.25 124.699 115.2 124.739 115.16C124.909 114.95 125.079 114.75 125.259 114.55C125.279 114.52 125.309 114.49 125.339 114.46C125.479 114.3 125.629 114.13 125.779 113.96C125.839 113.9 125.899 113.84 125.949 113.78C126.069 113.64 126.199 113.51 126.319 113.38C126.379 113.31 126.45 113.24 126.52 113.17C126.63 113.05 126.749 112.93 126.869 112.81C126.939 112.73 127.009 112.66 127.079 112.59C127.189 112.47 127.309 112.35 127.419 112.24C127.489 112.17 127.559 112.1 127.629 112.03C127.759 111.91 127.879 111.79 127.999 111.67C128.069 111.6 128.129 111.54 128.199 111.48C128.339 111.34 128.479 111.21 128.619 111.07C128.669 111.03 128.719 110.98 128.759 110.94C128.959 110.76 129.149 110.58 129.339 110.4H129.349C129.539 110.23 129.729 110.06 129.919 109.89C129.979 109.84 130.029 109.79 130.089 109.74C130.229 109.62 130.359 109.5 130.499 109.38C130.569 109.32 130.629 109.26 130.699 109.2C130.829 109.1 130.96 108.99 131.079 108.88C131.15 108.82 131.229 108.76 131.299 108.7C131.419 108.59 131.549 108.49 131.669 108.39L131.879 108.21C132.009 108.11 132.139 108 132.27 107.9C132.34 107.85 132.399 107.79 132.469 107.74C132.609 107.63 132.749 107.51 132.889 107.4C132.949 107.36 132.999 107.32 133.049 107.28C133.439 106.97 133.829 106.68 134.209 106.39C134.259 106.35 134.299 106.32 134.349 106.28C134.499 106.17 134.639 106.07 134.779 105.96C134.839 105.91 134.909 105.87 134.969 105.82C135.099 105.73 135.219 105.64 135.349 105.55C135.419 105.5 135.479 105.45 135.549 105.4C135.669 105.31 135.789 105.23 135.909 105.14C135.979 105.09 136.049 105.05 136.109 105C136.24 104.91 136.359 104.83 136.479 104.74C136.539 104.7 136.599 104.66 136.659 104.61C136.789 104.52 136.919 104.44 137.049 104.35C137.1 104.31 137.149 104.28 137.209 104.24C137.369 104.12 137.539 104.01 137.709 103.9L137.729 103.88C137.909 103.76 138.089 103.65 138.259 103.53C138.299 103.51 138.329 103.48 138.369 103.46C138.499 103.37 138.629 103.29 138.759 103.2C138.819 103.16 138.879 103.13 138.939 103.09C139.049 103.02 139.149 102.95 139.259 102.88C139.319 102.84 139.379 102.8 139.449 102.76C139.539 102.7 139.639 102.64 139.739 102.57C139.799 102.54 139.859 102.5 139.919 102.46C140.02 102.4 140.119 102.33 140.219 102.27C140.279 102.24 140.329 102.2 140.389 102.17C140.49 102.11 140.589 102.05 140.679 101.99C140.729 101.96 140.779 101.93 140.829 101.9C140.949 101.83 141.059 101.76 141.169 101.69C141.199 101.67 141.229 101.65 141.259 101.64C141.399 101.55 141.529 101.47 141.669 101.39C141.699 101.37 141.739 101.35 141.779 101.33C141.869 101.27 141.969 101.22 142.059 101.16C142.109 101.13 142.149 101.11 142.199 101.08C142.279 101.03 142.349 100.99 142.429 100.95C142.479 100.92 142.529 100.89 142.579 100.86C142.639 100.82 142.71 100.78 142.77 100.75C142.82 100.72 142.879 100.69 142.929 100.66C142.979 100.63 143.039 100.59 143.099 100.56C143.149 100.53 143.199 100.51 143.249 100.48C143.299 100.45 143.349 100.42 143.399 100.39C143.449 100.37 143.489 100.34 143.539 100.32C143.549 100.31 143.559 100.31 143.559 100.3V97.9898H144.669V94.2298H145.389V93.4098L145.379 93.3998C145.349 93.3898 145.32 93.3798 145.299 93.3598C145.27 93.3498 145.229 93.3298 145.199 93.3098C145.179 93.2998 145.149 93.2798 145.129 93.2598C145.099 93.2398 145.069 93.2098 145.039 93.1898C145.019 93.1698 144.999 93.1598 144.979 93.1398C144.939 93.0898 144.899 93.0498 144.859 92.9898C144.85 92.9898 144.849 92.9598 144.839 92.9498C144.809 92.9098 144.79 92.8598 144.77 92.8198C144.77 92.7998 144.749 92.7798 144.739 92.7598C144.729 92.7098 144.709 92.6698 144.699 92.6198C144.699 92.5998 144.689 92.5798 144.689 92.5598C144.669 92.4898 144.669 92.4298 144.669 92.3598C144.669 92.2898 144.669 92.2198 144.689 92.1498C144.689 92.1298 144.699 92.1098 144.699 92.0898C144.699 92.0398 144.729 91.9998 144.739 91.9498C144.749 91.9298 144.76 91.9098 144.77 91.8898C144.79 91.8498 144.809 91.8098 144.839 91.7598C144.849 91.7498 144.85 91.7298 144.859 91.7198C144.899 91.6698 144.939 91.6198 144.979 91.5698C144.999 91.5598 145.019 91.5398 145.039 91.5198C145.069 91.4998 145.099 91.4698 145.129 91.4498C145.149 91.4298 145.179 91.4198 145.199 91.3998C145.229 91.3798 145.27 91.3598 145.299 91.3498C145.32 91.3298 145.349 91.3198 145.379 91.3098C145.379 91.3098 145.389 91.3098 145.389 91.2998V90.9998H145.379C145.379 90.9998 145.32 90.9698 145.299 90.9598C145.27 90.9498 145.229 90.9298 145.199 90.9098C145.179 90.8898 145.149 90.8798 145.129 90.8598C145.099 90.8398 145.069 90.8098 145.039 90.7898C145.019 90.7698 144.999 90.7498 144.979 90.7398C144.939 90.6898 144.899 90.6398 144.859 90.5898C144.85 90.5798 144.849 90.5598 144.839 90.5398C144.809 90.4998 144.79 90.4598 144.77 90.4198C144.77 90.3998 144.749 90.3798 144.739 90.3498C144.729 90.3098 144.709 90.2698 144.699 90.2198C144.699 90.1998 144.689 90.1798 144.689 90.1598C144.669 90.0898 144.669 90.0198 144.669 89.9498C144.669 89.8798 144.669 89.8098 144.689 89.7398C144.689 89.7098 144.699 89.6898 144.709 89.6598C144.719 89.6198 144.729 89.5798 144.749 89.5298C144.759 89.5098 144.769 89.4798 144.789 89.4498C144.799 89.4198 144.819 89.3798 144.839 89.3498C144.859 89.3198 144.879 89.2998 144.899 89.2698C144.919 89.2398 144.939 89.2198 144.969 89.1898C144.989 89.1598 145.019 89.1398 145.039 89.1198C145.069 89.0898 145.089 89.0698 145.119 89.0498C145.149 89.0298 145.179 89.0098 145.209 88.9898C145.239 88.9898 145.269 88.9598 145.289 88.9498C145.329 88.9298 145.359 88.9098 145.399 88.8998C145.429 88.8898 145.459 88.8798 145.489 88.8698C145.519 88.8698 145.559 88.8498 145.599 88.8498C145.609 88.8398 145.619 88.8398 145.629 88.8398V84.4098C145.629 84.4098 145.609 84.3998 145.599 84.3998C145.539 84.3898 145.489 84.3698 145.429 84.3498C145.399 84.3398 145.379 84.3298 145.349 84.3198C145.299 84.2998 145.249 84.2598 145.189 84.2298C145.169 84.2198 145.149 84.2098 145.129 84.1898C145.069 84.1498 145.029 84.1098 144.979 84.0598C144.959 84.0498 144.939 84.0298 144.929 84.0098C144.859 83.9498 144.809 83.8698 144.759 83.7898C144.669 83.6398 144.619 83.4698 144.599 83.3098C144.529 82.7998 144.759 82.2898 145.229 82.0198C145.439 81.8898 145.679 81.8398 145.919 81.8398C145.859 81.8598 145.799 81.8898 145.739 81.9298C145.609 81.9998 145.499 82.0998 145.409 82.2198C145.319 82.3498 145.249 82.4898 145.219 82.6398C145.159 82.9098 145.189 83.1998 145.339 83.4598C145.379 83.5198 145.419 83.5798 145.469 83.6398C145.819 84.0298 146.399 84.1298 146.869 83.8598C146.929 83.8198 146.979 83.7798 147.029 83.7398C146.919 83.9498 146.759 84.1298 146.539 84.2598C146.449 84.3098 146.359 84.3498 146.27 84.3698C146.24 84.3798 146.219 84.3898 146.189 84.3898C146.129 84.4098 146.059 84.4198 145.989 84.4298H145.949V88.8398C145.949 88.8398 145.969 88.8398 145.979 88.8498C146.019 88.8498 146.059 88.8598 146.099 88.8698C146.129 88.8798 146.149 88.8898 146.179 88.8998C146.219 88.9098 146.249 88.9298 146.289 88.9498C146.319 88.9598 146.339 88.9798 146.369 88.9898C146.399 89.0098 146.429 89.0298 146.459 89.0498C146.489 89.0698 146.509 89.0898 146.539 89.1198C146.559 89.1398 146.589 89.1598 146.609 89.1898C146.639 89.2198 146.659 89.2398 146.679 89.2698C146.699 89.2998 146.719 89.3198 146.739 89.3498C146.759 89.3798 146.779 89.4198 146.799 89.4498C146.809 89.4798 146.82 89.5098 146.829 89.5298C146.85 89.5798 146.859 89.6198 146.869 89.6598C146.879 89.6898 146.889 89.7098 146.899 89.7398C146.909 89.8098 146.919 89.8798 146.919 89.9498C146.919 90.0198 146.909 90.0898 146.899 90.1598C146.899 90.1798 146.899 90.1998 146.879 90.2198C146.869 90.2698 146.859 90.3098 146.839 90.3498C146.839 90.3798 146.819 90.3998 146.809 90.4198C146.789 90.4598 146.769 90.4998 146.749 90.5398C146.739 90.5598 146.729 90.5798 146.719 90.5898C146.679 90.6398 146.639 90.6898 146.599 90.7398C146.579 90.7498 146.559 90.7698 146.539 90.7898C146.509 90.8098 146.479 90.8398 146.449 90.8598C146.429 90.8798 146.409 90.8898 146.379 90.9098C146.349 90.9298 146.319 90.9498 146.279 90.9598C146.259 90.9698 146.229 90.9898 146.209 90.9998H146.189V91.2998C146.189 91.2998 146.199 91.3098 146.209 91.3098C146.229 91.3198 146.259 91.3298 146.279 91.3498C146.319 91.3598 146.349 91.3798 146.379 91.3998C146.409 91.4198 146.429 91.4298 146.449 91.4498C146.479 91.4698 146.509 91.4998 146.539 91.5198C146.559 91.5398 146.579 91.5598 146.599 91.5698C146.639 91.6198 146.679 91.6698 146.719 91.7198C146.729 91.7298 146.739 91.7498 146.749 91.7598C146.769 91.7998 146.789 91.8498 146.809 91.8898C146.819 91.9098 146.829 91.9298 146.839 91.9498C146.859 91.9998 146.869 92.0398 146.879 92.0898C146.889 92.1098 146.889 92.1298 146.899 92.1498C146.909 92.2198 146.919 92.2898 146.919 92.3598C146.919 92.4298 146.909 92.4898 146.899 92.5598C146.899 92.5798 146.899 92.5998 146.879 92.6198C146.869 92.6698 146.859 92.7098 146.839 92.7598C146.839 92.7798 146.819 92.7998 146.809 92.8198C146.789 92.8598 146.769 92.9098 146.749 92.9498C146.739 92.9598 146.729 92.9798 146.719 92.9898C146.679 93.0498 146.639 93.0898 146.599 93.1398C146.579 93.1598 146.559 93.1698 146.539 93.1898C146.509 93.2098 146.479 93.2398 146.449 93.2598C146.429 93.2798 146.409 93.2998 146.379 93.3098C146.349 93.3298 146.319 93.3498 146.279 93.3598C146.259 93.3798 146.229 93.3898 146.209 93.3998C146.209 93.3998 146.203 93.4031 146.189 93.4098V94.2298H146.909V97.9898H148.02V100.38C148.02 100.38 148.109 100.43 148.159 100.45C148.199 100.48 148.239 100.5 148.279 100.52C148.369 100.58 148.469 100.63 148.569 100.69C148.589 100.7 148.619 100.72 148.639 100.73C148.74 100.79 148.839 100.84 148.939 100.9C148.979 100.92 149.019 100.95 149.059 100.97C149.139 101.02 149.219 101.06 149.299 101.11C149.35 101.14 149.399 101.17 149.449 101.2C149.529 101.25 149.609 101.29 149.689 101.34C149.739 101.37 149.799 101.41 149.849 101.44C149.929 101.49 150.009 101.53 150.099 101.58C150.149 101.62 150.209 101.65 150.259 101.68C150.349 101.74 150.439 101.79 150.539 101.85C150.589 101.88 150.639 101.91 150.689 101.94L151.02 102.15C151.02 102.15 151.1 102.19 151.139 102.22C151.289 102.31 151.449 102.41 151.599 102.51C151.619 102.52 151.639 102.54 151.659 102.55C151.799 102.63 151.939 102.72 152.079 102.81C152.13 102.84 152.179 102.88 152.229 102.91C152.339 102.98 152.449 103.05 152.569 103.13C152.629 103.17 152.689 103.21 152.749 103.25C152.859 103.32 152.959 103.39 153.069 103.46C153.139 103.5 153.199 103.54 153.27 103.59C153.38 103.66 153.489 103.73 153.599 103.81C153.659 103.85 153.719 103.89 153.789 103.93C153.909 104.01 154.02 104.09 154.139 104.18C154.199 104.21 154.259 104.25 154.319 104.29C154.469 104.4 154.62 104.5 154.77 104.6C154.799 104.62 154.829 104.64 154.859 104.66C155.039 104.79 155.229 104.92 155.409 105.06C155.439 105.08 155.479 105.1 155.509 105.12C155.659 105.23 155.809 105.34 155.959 105.45C156.019 105.49 156.089 105.54 156.149 105.58C156.269 105.67 156.399 105.77 156.529 105.86C156.589 105.91 156.659 105.96 156.729 106.01C156.849 106.1 156.979 106.19 157.099 106.29L157.309 106.44C157.429 106.54 157.559 106.63 157.679 106.73L157.889 106.88C158.02 106.99 158.159 107.09 158.289 107.2C158.349 107.24 158.409 107.29 158.459 107.33C158.649 107.48 158.849 107.63 159.039 107.79C159.239 107.95 159.429 108.11 159.629 108.27C159.679 108.31 159.719 108.34 159.759 108.38C159.909 108.5 160.059 108.62 160.209 108.75C160.269 108.8 160.339 108.86 160.399 108.91C160.529 109.02 160.659 109.14 160.789 109.25C160.859 109.31 160.929 109.36 160.999 109.42C161.119 109.53 161.249 109.64 161.379 109.75C161.449 109.82 161.519 109.88 161.589 109.94C161.709 110.05 161.839 110.17 161.969 110.28C162.029 110.34 162.099 110.4 162.159 110.46L162.579 110.85C162.579 110.85 162.679 110.94 162.729 110.99C163.119 111.35 163.489 111.71 163.869 112.08C163.919 112.13 163.969 112.19 164.02 112.24C164.15 112.37 164.289 112.5 164.419 112.64C164.479 112.71 164.549 112.77 164.609 112.84C164.729 112.96 164.849 113.09 164.969 113.21C165.029 113.28 165.099 113.35 165.169 113.42C165.279 113.55 165.389 113.67 165.509 113.79C165.569 113.86 165.639 113.94 165.699 114.01C165.819 114.14 165.939 114.27 166.049 114.4C166.109 114.47 166.169 114.53 166.229 114.6C166.359 114.75 166.489 114.9 166.619 115.06C166.659 115.1 166.699 115.15 166.739 115.2C166.909 115.4 167.079 115.61 167.249 115.81C167.259 115.83 167.279 115.86 167.299 115.88C167.449 116.06 167.589 116.24 167.729 116.43C167.779 116.49 167.829 116.56 167.879 116.62C167.989 116.76 168.099 116.91 168.199 117.05C168.259 117.13 168.309 117.2 168.369 117.28C168.469 117.41 168.569 117.55 168.659 117.69C168.719 117.77 168.77 117.85 168.829 117.93C168.919 118.06 169.02 118.2 169.109 118.34C169.16 118.42 169.219 118.5 169.27 118.58C169.359 118.72 169.46 118.86 169.549 119.01C169.6 119.08 169.639 119.16 169.689 119.23C169.799 119.4 169.899 119.58 170.009 119.75C170.029 119.8 170.059 119.84 170.089 119.89C170.219 120.11 170.349 120.33 170.469 120.56C170.499 120.61 170.52 120.65 170.549 120.7C170.639 120.88 170.74 121.05 170.829 121.23C170.869 121.31 170.91 121.39 170.949 121.46C171.02 121.61 171.099 121.76 171.169 121.91C171.209 122 171.249 122.09 171.289 122.17C171.359 122.32 171.419 122.46 171.489 122.6C171.529 122.69 171.559 122.78 171.599 122.87C171.669 123.02 171.729 123.16 171.779 123.31C171.819 123.4 171.859 123.49 171.889 123.57C171.949 123.73 172.009 123.89 172.059 124.04C172.089 124.12 172.119 124.2 172.149 124.28C172.219 124.48 172.289 124.69 172.349 124.89C172.359 124.93 172.38 124.96 172.389 124.99C172.46 125.23 172.529 125.46 172.589 125.71C172.609 125.77 172.63 125.84 172.639 125.91C172.689 126.08 172.73 126.25 172.77 126.43C172.79 126.51 172.809 126.6 172.829 126.69C172.859 126.85 172.899 127 172.919 127.15C172.939 127.25 172.959 127.35 172.979 127.44C172.999 127.59 173.029 127.74 173.049 127.89C173.059 127.99 173.079 128.09 173.089 128.19C173.109 128.34 173.13 128.49 173.139 128.65C173.139 128.74 173.16 128.84 173.169 128.93C173.189 129.1 173.199 129.27 173.209 129.44C173.209 129.52 173.219 129.6 173.219 129.68C173.229 129.93 173.239 130.18 173.239 130.43C173.239 131.1 173.219 131.78 173.179 132.45C173.139 133.12 173.079 133.8 173.009 134.47C172.989 134.59 172.959 134.71 172.919 134.82V134.84H175.899V136.32H177.249V137.82H176.939V141.92H177.249V143.42H176.539V144.65H180.339V146.9H185.499V149.22H185.679C185.899 149.22 186.1 149.29 186.27 149.4C186.549 149.59 186.739 149.92 186.739 150.28V150.58H187.139V150.28C187.139 150.05 187.219 149.84 187.339 149.66C187.419 149.56 187.499 149.47 187.609 149.4C187.779 149.29 187.979 149.22 188.199 149.22H188.309C188.529 149.22 188.729 149.29 188.899 149.4C189.189 149.59 189.369 149.92 189.369 150.28V150.58H189.77V150.28C189.77 149.92 189.959 149.59 190.239 149.4C190.409 149.29 190.619 149.22 190.829 149.22H190.949C191.169 149.22 191.369 149.29 191.539 149.4C191.819 149.59 192.009 149.92 192.009 150.28V150.58H192.409V150.28C192.409 149.92 192.599 149.59 192.879 149.4C193.049 149.29 193.249 149.22 193.469 149.22H193.579C193.799 149.22 193.999 149.29 194.169 149.4C194.459 149.59 194.639 149.92 194.639 150.28V150.58H195.039V150.28C195.039 149.92 195.229 149.59 195.509 149.4C195.679 149.29 195.889 149.22 196.099 149.22H196.219C196.429 149.22 196.639 149.29 196.809 149.4C197.089 149.59 197.279 149.92 197.279 150.28V150.58H197.679V150.28C197.679 149.92 197.869 149.59 198.149 149.4C198.319 149.29 198.519 149.22 198.739 149.22H198.849C199.069 149.22 199.269 149.29 199.439 149.4C199.729 149.59 199.909 149.92 199.909 150.28V150.58H200.309V150.28C200.309 149.84 200.579 149.47 200.959 149.31C201.089 149.25 201.229 149.22 201.369 149.22H201.489C201.709 149.22 201.91 149.29 202.079 149.4C202.359 149.59 202.549 149.92 202.549 150.28V150.58H202.969V150.28C202.969 149.92 203.149 149.59 203.439 149.4C203.609 149.29 203.809 149.22 204.029 149.22H204.139C204.359 149.22 204.559 149.29 204.729 149.4C205.009 149.59 205.199 149.92 205.199 150.28V150.58H205.599V150.28C205.599 149.7 206.079 149.22 206.659 149.22H206.77C206.99 149.22 207.199 149.29 207.369 149.4C207.649 149.59 207.839 149.92 207.839 150.28V150.58H208.239V150.28C208.239 149.92 208.419 149.59 208.709 149.4C208.879 149.29 209.079 149.22 209.299 149.22H209.409C209.629 149.22 209.829 149.29 209.999 149.4C210.279 149.59 210.469 149.92 210.469 150.28V150.58H210.869V150.28C210.869 149.7 211.349 149.22 211.929 149.22H212.039C212.259 149.22 212.469 149.29 212.639 149.4C212.919 149.59 213.099 149.92 213.099 150.28V150.58H213.509V150.28C213.509 149.7 213.979 149.22 214.569 149.22H214.679C214.899 149.22 215.1 149.29 215.27 149.4C215.549 149.59 215.739 149.92 215.739 150.28V150.58H216.139V150.28C216.139 149.92 216.329 149.59 216.609 149.4C216.779 149.29 216.979 149.22 217.199 149.22H217.309C217.529 149.22 217.739 149.29 217.909 149.4C218.189 149.59 218.369 149.92 218.369 150.28V150.58H218.779V150.28C218.779 149.92 218.959 149.59 219.249 149.4C219.419 149.29 219.619 149.22 219.839 149.22H219.949C220.099 149.22 220.229 149.25 220.359 149.31C220.74 149.47 221.009 149.84 221.009 150.28V150.58H221.409V150.28C221.409 149.92 221.599 149.59 221.879 149.4C222.049 149.29 222.249 149.22 222.469 149.22H222.579C222.799 149.22 223.009 149.29 223.179 149.4C223.459 149.59 223.639 149.92 223.639 150.28V150.58H224.049V150.28C224.049 149.92 224.23 149.59 224.52 149.4C224.689 149.29 224.889 149.22 225.109 149.22H225.219C225.439 149.22 225.639 149.29 225.809 149.4C226.089 149.59 226.279 149.92 226.279 150.28V150.58H226.679V150.28C226.679 149.92 226.869 149.59 227.149 149.4C227.319 149.29 227.519 149.22 227.739 149.22H227.849C228.069 149.22 228.279 149.29 228.449 149.4C228.549 149.47 228.639 149.56 228.709 149.66C228.839 149.84 228.909 150.05 228.909 150.28V150.58H229.319V150.28C229.319 149.92 229.499 149.59 229.789 149.4C229.959 149.29 230.159 149.22 230.379 149.22H230.489C230.639 149.22 230.769 149.25 230.899 149.31C231.019 149.35 231.119 149.43 231.209 149.51C231.219 149.52 231.229 149.52 231.239 149.53C231.429 149.72 231.549 149.99 231.549 150.28V162.86H231.949V162.57C231.949 162.42 231.979 162.28 232.039 162.16C232.119 161.97 232.249 161.8 232.419 161.69C232.589 161.57 232.789 161.51 233.009 161.51H233.119C233.339 161.51 233.549 161.57 233.719 161.69C233.889 161.8 234.019 161.97 234.099 162.16C234.149 162.28 234.179 162.42 234.179 162.57V162.86H234.589V162.57C234.589 162.42 234.619 162.28 234.669 162.16C234.749 161.97 234.889 161.8 235.059 161.69C235.229 161.57 235.429 161.51 235.649 161.51H235.759C235.979 161.51 236.179 161.57 236.349 161.69C236.519 161.8 236.659 161.97 236.739 162.16C236.789 162.28 236.819 162.42 236.819 162.57V162.86H237.219V162.57C237.219 162.42 237.249 162.28 237.309 162.16C237.389 161.97 237.519 161.8 237.689 161.69C237.859 161.57 238.059 161.51 238.279 161.51H238.389C238.609 161.51 238.819 161.57 238.989 161.69C239.159 161.8 239.289 161.97 239.369 162.16C239.419 162.28 239.449 162.42 239.449 162.57V162.86H239.859V162.57C239.859 162.42 239.889 162.28 239.939 162.16C240.019 161.97 240.16 161.8 240.329 161.69C240.499 161.57 240.699 161.51 240.919 161.51H241.029C241.249 161.51 241.449 161.57 241.619 161.69C241.789 161.8 241.929 161.97 242.009 162.16C242.059 162.28 242.089 162.42 242.089 162.57V162.86H242.489V162.57C242.489 162.42 242.52 162.28 242.579 162.16C242.66 161.97 242.789 161.8 242.959 161.69C243.129 161.57 243.329 161.51 243.549 161.51H243.659C243.879 161.51 244.089 161.57 244.259 161.69C244.429 161.8 244.559 161.97 244.639 162.16C244.689 162.28 244.719 162.42 244.719 162.57V166.03H244.939V166.85H244.719V170.27H244.939V171.08H244.719V174.95H243.319V187.28H252.999V191.39H265.089V201.37H265.239V160.74H265.219V159.09H263.929V153.44H267.589V137.85V136.2H266.639V130.55H267.599V127.61H268.59V127.56H269.509V126.36H269.65V120.34H269.509V119.12H269.169V116.13H269.509V113.82C269.52 113.65 269.539 113.48 269.569 113.32V113.28C269.599 113.11 269.65 112.95 269.699 112.79C269.71 112.77 269.719 112.74 269.729 112.72C269.849 112.4 270.009 112.11 270.21 111.84C270.21 111.82 270.24 111.79 270.259 111.77C270.359 111.64 270.47 111.52 270.579 111.41C270.59 111.39 270.609 111.38 270.619 111.37C270.729 111.27 270.85 111.17 270.97 111.08C270.99 111.07 271.01 111.05 271.03 111.04C271.16 110.94 271.299 110.86 271.439 110.79C271.469 110.77 271.5 110.76 271.52 110.75C271.669 110.68 271.81 110.62 271.97 110.57H271.979C271.979 110.57 271.999 110.56 272.009 110.55H272.03C272.16 110.49 272.299 110.44 272.449 110.4V110.07H272.549L272.71 108.82L272.759 108.44H272.829V107.43H272.929V107.21L272.919 107.2C272.889 107.19 272.87 107.17 272.84 107.16C272.82 107.15 272.789 107.13 272.77 107.11C272.75 107.1 272.73 107.08 272.72 107.06C272.69 107.04 272.68 107.01 272.66 106.98C272.66 106.96 272.639 106.94 272.629 106.92C272.609 106.87 272.599 106.81 272.599 106.75C272.599 106.69 272.609 106.64 272.629 106.59C272.639 106.57 272.65 106.55 272.66 106.53C272.68 106.5 272.69 106.47 272.72 106.45C272.73 106.43 272.75 106.41 272.77 106.4C272.789 106.38 272.82 106.36 272.84 106.35C272.87 106.34 272.889 106.32 272.919 106.31C272.919 106.31 272.929 106.31 272.929 106.3V106.17H272.919C272.919 106.17 272.87 106.14 272.84 106.12C272.82 106.12 272.789 106.09 272.77 106.07C272.75 106.06 272.73 106.04 272.72 106.02C272.69 106 272.68 105.97 272.66 105.94C272.66 105.92 272.639 105.9 272.629 105.89C272.609 105.83 272.599 105.78 272.599 105.72C272.599 105.66 272.609 105.6 272.629 105.55C272.639 105.53 272.65 105.51 272.66 105.5C272.68 105.46 272.69 105.44 272.72 105.41C272.73 105.39 272.75 105.38 272.77 105.36C272.789 105.34 272.82 105.33 272.84 105.31C272.87 105.3 272.889 105.28 272.919 105.28C272.919 105.27 272.929 105.27 272.929 105.27V105.07H272.999V103.64L273.039 102.49H273.099L273.139 103.64V105.07H273.199V105.27C273.199 105.27 273.22 105.27 273.22 105.28C273.25 105.28 273.269 105.3 273.299 105.31C273.319 105.33 273.349 105.34 273.369 105.36C273.389 105.38 273.399 105.39 273.419 105.41C273.439 105.44 273.459 105.46 273.479 105.5C273.489 105.51 273.499 105.53 273.509 105.55C273.529 105.6 273.539 105.66 273.539 105.72C273.539 105.78 273.529 105.83 273.509 105.89C273.499 105.9 273.489 105.92 273.479 105.94C273.459 105.97 273.439 106 273.419 106.02C273.399 106.04 273.389 106.06 273.369 106.07C273.349 106.09 273.319 106.11 273.299 106.12C273.269 106.14 273.25 106.15 273.22 106.16C273.22 106.16 273.219 106.17 273.199 106.17V106.3L273.22 106.31C273.25 106.32 273.269 106.34 273.299 106.35C273.319 106.36 273.349 106.38 273.369 106.4C273.389 106.41 273.399 106.43 273.419 106.45C273.439 106.47 273.459 106.5 273.479 106.53C273.489 106.55 273.499 106.57 273.509 106.59C273.529 106.64 273.539 106.69 273.539 106.75C273.539 106.82 273.529 106.87 273.509 106.92C273.499 106.94 273.489 106.96 273.479 106.98C273.459 107.01 273.439 107.04 273.419 107.06C273.399 107.08 273.389 107.1 273.369 107.11C273.349 107.13 273.319 107.15 273.299 107.16C273.269 107.17 273.25 107.19 273.22 107.2C273.22 107.2 273.219 107.2 273.199 107.21V107.43H273.309V108.44H273.379L273.429 108.82L273.59 110.07H273.689V110.4C273.689 110.4 273.719 110.41 273.739 110.42C273.809 110.44 273.889 110.46 273.96 110.48C274 110.5 274.039 110.51 274.079 110.53C274.109 110.54 274.139 110.55 274.179 110.57C274.189 110.57 274.189 110.58 274.199 110.58C274.349 110.63 274.499 110.69 274.639 110.76C274.659 110.77 274.68 110.78 274.699 110.79C274.849 110.87 274.989 110.95 275.119 111.05C275.139 111.06 275.159 111.07 275.179 111.09C275.299 111.18 275.419 111.28 275.539 111.39L275.559 111.41C275.679 111.53 275.789 111.65 275.889 111.78C275.9 111.8 275.919 111.82 275.939 111.85C276.129 112.11 276.29 112.41 276.41 112.72C276.42 112.75 276.429 112.77 276.439 112.8C276.489 112.95 276.529 113.12 276.569 113.29V113.33C276.599 113.49 276.619 113.65 276.629 113.82V116.13H276.999V119.12H276.669V120.34H276.53V126.36H276.669V127.56H277.59V127.61H278.579V130.55H279.539V136.2H278.579V153.44H282.229V159.09H280.919V201.37H285.929Z" style="--orig-fill: url(#paint0_linear_2904_68473)"/>
<defs>
<linearGradient id="paint0_linear_2904_68473" x1="11.0995" y1="223.49" x2="267.099" y2="51.0398" gradientUnits="userSpaceOnUse">
<stop stop-color="#F7E57E"/>
<stop offset="0.08" stop-color="#B28238"/>
<stop offset="0.12" stop-color="#B98D40"/>
<stop offset="0.18" stop-color="#CEAB55"/>
<stop offset="0.24" stop-color="#E6CD6D"/>
<stop offset="0.39" stop-color="#F5EBA8"/>
<stop offset="0.5" stop-color="#FFFFD0"/>
<stop offset="0.62" stop-color="#FAF1A6"/>
<stop offset="0.73" stop-color="#F8E888"/>
<stop offset="0.79" stop-color="#F7E57E"/>
<stop offset="0.82" stop-color="#F3DF78"/>
<stop offset="0.87" stop-color="#E9CF69"/>
<stop offset="0.92" stop-color="#D8B450"/>
<stop offset="0.98" stop-color="#C08E2C"/>
</linearGradient>
</defs>
</svg>
