<svg width="56" height="166" viewBox="0 0 56 166" fill="none" xmlns="http://www.w3.org/2000/svg">
<path d="M0.0228221 167.85C-0.0371779 167.84 0.0228258 167.25 0.182826 166.16C0.352826 165.06 0.632818 163.46 1.00282 161.39C1.19282 160.36 1.41283 159.21 1.64283 157.95C1.86283 156.69 2.10282 155.32 2.36282 153.85C2.88282 150.91 3.49282 147.57 4.08282 143.86C5.35282 136.46 6.59282 127.6 7.80282 117.75C8.94282 107.89 9.86282 97.0203 10.3628 85.5903C11.4028 62.7103 10.0428 41.9703 8.45283 27.0503C7.60283 19.5903 6.85283 13.5603 6.20283 9.41029C5.90283 7.33029 5.69283 5.71027 5.56283 4.61027C5.43283 3.51027 5.40282 2.92029 5.46282 2.91029C5.52282 2.90029 5.68283 3.46029 5.93283 4.54029C6.18283 5.62029 6.51283 7.22029 6.92283 9.29029C7.79283 13.4103 8.75282 19.4303 9.77282 26.8903C11.7028 41.8203 13.2828 62.6703 12.2428 85.6603C11.7428 97.1503 10.7728 108.07 9.52282 117.95C8.22282 127.82 6.84283 136.69 5.39283 144.08C4.72283 147.78 4.02283 151.12 3.40283 154.04C3.09283 155.5 2.80283 156.86 2.53283 158.11C2.24283 159.36 1.97283 160.49 1.73283 161.52C1.24283 163.57 0.852831 165.15 0.562831 166.22C0.272831 167.29 0.0928319 167.85 0.0328319 167.83L0.0228221 167.85Z" style="--orig-fill: url(#paint0_linear_2904_50356)"/>
<path d="M55.9432 170.821C55.8832 170.831 55.7232 170.261 55.4932 169.161C55.2632 168.061 54.9532 166.431 54.5832 164.331C53.8832 160.121 52.9532 154.021 52.0632 146.451C51.1732 138.881 50.2932 129.841 49.5732 119.781C48.8532 109.721 48.2832 98.6507 47.9032 87.0307C47.7132 81.2207 47.5832 75.5407 47.4932 70.0607C47.3832 64.5907 47.3632 59.2607 47.5532 54.2207C47.9132 44.1207 48.8532 35.0607 49.9932 27.5007C51.1132 19.9407 52.4732 13.9007 53.5232 9.77069C54.0532 7.70069 54.5132 6.11071 54.8632 5.04071C55.2032 3.97071 55.4132 3.41069 55.4732 3.43069C55.5332 3.45069 55.4532 4.03071 55.2332 5.13071C55.0032 6.24071 54.6732 7.86069 54.2432 9.93069C53.4132 14.1007 52.2632 20.1407 51.3232 27.6807C50.3532 35.2107 49.5632 44.2307 49.2932 54.2607C49.1532 59.2807 49.2132 64.5307 49.3432 70.0107C49.4532 75.4807 49.6032 81.1507 49.7932 86.9507C50.1732 98.5607 50.6832 109.611 51.3132 119.651C51.9432 129.691 52.6732 138.721 53.3932 146.291C54.1132 153.861 54.8432 159.981 55.3132 164.211C55.8232 168.441 56.0732 170.781 55.9332 170.801L55.9432 170.821Z" style="--orig-fill: url(#paint1_linear_2904_50356)"/>
<path d="M55.5024 3.4705C55.4424 3.7505 52.6624 3.33049 48.1624 2.86049C45.9124 2.60049 43.2324 2.41048 40.2524 2.20048C37.2724 2.04048 33.9924 1.91049 30.5424 1.89049C16.7424 1.74049 5.65244 3.62049 5.55244 3.08049C5.50244 2.84049 8.22244 2.03049 12.7424 1.30049C15.0024 0.91049 17.7024 0.610509 20.7224 0.350509C23.7424 0.130509 27.0624 -0.0094974 30.5524 0.000502603C34.0424 0.0305026 37.3624 0.210504 40.3824 0.470504C43.3924 0.770504 46.0924 1.11051 48.3424 1.54051C52.8524 2.36051 55.5424 3.24051 55.4924 3.48051L55.5024 3.4705Z" style="--orig-fill: url(#paint2_linear_2904_50356)"/>
<path d="M49.1732 97.0106C49.1732 97.0106 49.0232 96.6705 48.8032 96.0205C48.5932 95.3605 48.2732 94.3905 47.8732 93.1405C47.0932 90.6405 45.9132 87.0305 44.4232 82.5805C42.9332 78.1305 41.0732 72.8705 38.9032 67.0605C36.7132 61.2605 34.2032 54.9205 31.4032 48.3405C28.5832 41.7605 25.7532 35.5605 23.0832 29.9705C20.3932 24.3805 17.8832 19.3905 15.7132 15.2405C13.5432 11.0805 11.7532 7.73054 10.4932 5.43054C9.87323 4.27054 9.39324 3.38054 9.06324 2.77054C8.74324 2.16054 8.58323 1.83055 8.60323 1.82055C8.62323 1.81055 8.82324 2.11054 9.17324 2.71054C9.52324 3.31054 10.0432 4.18055 10.7032 5.32055C12.0332 7.58055 13.8832 10.9006 16.1032 15.0406C18.3332 19.1706 20.8832 24.1506 23.6032 29.7306C26.3032 35.3206 29.1632 41.5205 31.9832 48.1105C34.7832 54.7005 37.2832 61.0606 39.4432 66.8806C41.5832 72.7106 43.4032 77.9905 44.8432 82.4605C46.2832 86.9305 47.3932 90.5605 48.1032 93.0905C48.4532 94.3505 48.7332 95.3306 48.9232 96.0005C49.1032 96.6705 49.1832 97.0205 49.1632 97.0305L49.1732 97.0106Z" style="--orig-fill: url(#paint3_linear_2904_50356)"/>
<path d="M49.5931 108.051C49.5931 108.051 49.5431 107.971 49.4731 107.791C49.4031 107.611 49.3031 107.351 49.1631 107.011C48.9031 106.321 48.5331 105.301 48.0431 103.991C47.0831 101.361 45.7031 97.5606 43.9431 92.8906C40.4531 83.5306 35.4731 70.6506 29.5031 56.6206C26.5131 49.6106 23.5331 42.9806 20.7631 36.9906C17.9531 31.0106 15.3731 25.6506 13.0931 21.2106C11.9831 18.9706 10.9231 16.9806 10.0031 15.2206C9.09307 13.4606 8.29307 11.9506 7.61307 10.7206C6.95307 9.49061 6.44308 8.53062 6.09308 7.88062C5.92308 7.55062 5.80307 7.30062 5.71307 7.13062C5.63307 6.96062 5.59307 6.87061 5.60307 6.87061C5.60307 6.87061 5.67307 6.94062 5.77307 7.10062C5.87307 7.26062 6.01307 7.50062 6.21307 7.82062C6.58307 8.46062 7.13307 9.39062 7.83307 10.6006C8.54307 11.8106 9.37308 13.3006 10.3131 15.0506C11.2631 16.7906 12.3531 18.7806 13.4931 21.0006C15.8231 25.4206 18.4531 30.7706 21.2931 36.7406C24.1031 42.7306 27.0931 49.3506 30.0831 56.3706C36.0631 70.4106 40.9831 83.3306 44.3631 92.7306C46.0631 97.4306 47.3831 101.261 48.2731 103.911C48.7131 105.241 49.0531 106.271 49.2831 106.971C49.3931 107.321 49.4731 107.591 49.5331 107.771C49.5831 107.951 49.6031 108.051 49.5931 108.051Z" style="--orig-fill: url(#paint4_linear_2904_50356)"/>
<path d="M51.2026 129.791C51.2026 129.791 51.1426 129.701 51.0726 129.511C50.9926 129.321 50.8826 129.041 50.7426 128.671C50.4626 127.931 50.0526 126.831 49.5126 125.421C48.4626 122.591 46.9426 118.501 45.0626 113.441C41.3126 103.321 36.0626 89.3606 30.1026 74.0106C24.1326 58.6606 18.5826 44.8206 14.5226 34.8206C12.4926 29.8206 10.8526 25.7706 9.71261 22.9806C9.15261 21.5806 8.72262 20.4906 8.42262 19.7506C8.28262 19.3806 8.17261 19.1006 8.10261 18.9006C8.03261 18.7106 8.00262 18.6106 8.01262 18.6006C8.02262 18.6006 8.07261 18.6906 8.16261 18.8706C8.25261 19.0606 8.37262 19.3306 8.54262 19.6906C8.86262 20.4206 9.33261 21.4906 9.94261 22.8706C11.1426 25.6406 12.8526 29.6606 14.9426 34.6406C19.1126 44.6006 24.7326 58.4106 30.7026 73.7706C36.6626 89.1306 41.8426 103.111 45.4926 113.271C47.3226 118.351 48.7726 122.471 49.7526 125.321C50.2326 126.751 50.6126 127.861 50.8726 128.611C50.9926 128.991 51.0826 129.281 51.1526 129.471C51.2126 129.671 51.2326 129.771 51.2226 129.771L51.2026 129.791Z" style="--orig-fill: url(#paint5_linear_2904_50356)"/>
<path d="M52.4632 143.131C52.4632 143.131 52.4032 143.041 52.3132 142.861C52.2232 142.681 52.0932 142.411 51.9232 142.061C51.5932 141.351 51.1032 140.291 50.4632 138.941C49.8332 137.591 49.0732 135.921 48.2332 133.971C47.3932 132.021 46.4032 129.811 45.4032 127.331C43.3332 122.401 41.0032 116.471 38.4832 109.871C35.9832 103.261 33.3032 95.9607 30.5332 88.2907C27.7632 80.6207 25.1132 73.3207 22.6532 66.6907C20.1832 60.0707 17.9032 54.1307 15.9132 49.1707C14.9432 46.6807 13.9932 44.4607 13.1932 42.4907C12.3932 40.5207 11.6832 38.8407 11.0832 37.4707C10.5032 36.0907 10.0532 35.0207 9.74316 34.3007C9.59316 33.9307 9.48316 33.6607 9.41316 33.4707C9.34316 33.2807 9.31316 33.1807 9.32316 33.1807C9.32316 33.1807 9.38316 33.2707 9.47316 33.4507C9.56316 33.6307 9.69316 33.9007 9.86316 34.2607C10.1932 34.9807 10.6832 36.0307 11.3032 37.3907C11.9332 38.7507 12.6832 40.4207 13.5132 42.3707C14.3432 44.3207 15.3232 46.5407 16.3232 49.0207C18.3732 53.9607 20.6932 59.8907 23.2032 66.5007C25.6932 73.1207 28.3632 80.4207 31.1332 88.0907C33.9032 95.7607 36.5632 103.061 39.0332 109.681C41.5132 116.291 43.8032 122.231 45.8232 127.181C46.8032 129.671 47.7532 131.891 48.5632 133.851C49.3632 135.811 50.0932 137.491 50.6932 138.861C51.2832 140.231 51.7332 141.301 52.0432 142.031C52.1932 142.391 52.3032 142.671 52.3832 142.861C52.4532 143.051 52.4832 143.151 52.4832 143.151L52.4632 143.131Z" style="--orig-fill: url(#paint6_linear_2904_50356)"/>
<path d="M52.7823 150.451C52.7823 150.451 52.7123 150.371 52.6123 150.211C52.5123 150.041 52.3723 149.791 52.1823 149.471C51.8123 148.811 51.2723 147.831 50.5623 146.581C49.8623 145.321 49.0223 143.781 48.0923 141.961C47.1523 140.141 46.0623 138.091 44.9423 135.771C43.8023 133.461 42.5623 130.931 41.3023 128.181C40.0023 125.451 38.7023 122.491 37.3223 119.381C34.6123 113.141 31.7523 106.231 28.9223 98.9107C23.2823 84.2607 18.7023 70.8007 15.4423 61.0507C13.8423 56.1707 12.5423 52.2107 11.6423 49.4807C11.2123 48.1107 10.8723 47.0407 10.6423 46.3207C10.5323 45.9607 10.4523 45.6807 10.4023 45.4907C10.3523 45.3007 10.3323 45.2107 10.3423 45.2007C10.3523 45.2007 10.3923 45.2907 10.4623 45.4707C10.5323 45.6507 10.6323 45.9207 10.7623 46.2807C11.0123 46.9907 11.3923 48.0507 11.8723 49.4007C12.8123 52.1207 14.1823 56.0507 15.8623 60.9007C19.2323 70.6107 23.8723 84.0407 29.5023 98.6807C32.3323 105.991 35.1723 112.911 37.8523 119.151C39.2223 122.261 40.5023 125.221 41.7723 127.961C43.0123 130.721 44.2223 133.251 45.3423 135.571C46.4323 137.901 47.5023 139.961 48.4023 141.791C49.3023 143.621 50.1123 145.181 50.7823 146.461C51.4423 147.741 51.9523 148.731 52.2923 149.411C52.4623 149.751 52.5823 150.011 52.6723 150.181C52.7523 150.361 52.7923 150.451 52.7823 150.451Z" style="--orig-fill: url(#paint7_linear_2904_50356)"/>
<path d="M52.0028 159.091C52.0028 159.091 51.9429 159.011 51.8529 158.851C51.7629 158.681 51.6329 158.431 51.4529 158.111C51.1129 157.451 50.6229 156.481 49.9829 155.231C48.7129 152.721 46.9329 149.071 44.7829 144.531C40.4829 135.461 34.7929 122.801 29.0329 108.591C23.2829 94.3806 18.5529 81.3306 15.3229 71.8306C13.7029 67.0806 12.4429 63.2106 11.6029 60.5306C11.1929 59.1906 10.8729 58.1506 10.6529 57.4406C10.5529 57.0906 10.4729 56.8106 10.4229 56.6306C10.3729 56.4506 10.3529 56.3506 10.3629 56.3506C10.3729 56.3506 10.4129 56.4406 10.4829 56.6106C10.5529 56.7906 10.6429 57.0506 10.7729 57.4006C11.0129 58.1006 11.3729 59.1306 11.8329 60.4506C12.7529 63.1006 14.0929 66.9406 15.7329 71.6806C19.0629 81.1506 23.8629 94.1606 29.6129 108.351C35.3729 122.541 40.9929 135.221 45.1829 144.341C47.3029 148.891 49.0129 152.571 50.1929 155.121C50.7829 156.391 51.2429 157.381 51.5529 158.051C51.7029 158.391 51.8129 158.651 51.8929 158.821C51.9629 158.991 52.0029 159.091 51.9929 159.091H52.0028Z" style="--orig-fill: url(#paint8_linear_2904_50356)"/>
<path d="M47.7126 164.311C47.7126 164.311 47.5226 164.011 47.2226 163.401C46.9326 162.791 46.4926 161.901 45.9426 160.751C44.8326 158.451 43.2826 155.091 41.4026 150.921C37.6426 142.591 32.6426 130.981 27.5426 117.991C22.4526 105.001 18.2126 93.0905 15.3126 84.4205C13.8626 80.0905 12.7126 76.5705 11.9626 74.1205C11.5926 72.9005 11.3026 71.9505 11.1026 71.3005C10.9126 70.6505 10.8226 70.3105 10.8426 70.3105C10.8626 70.3105 10.9926 70.6305 11.2226 71.2705C11.4426 71.9105 11.7726 72.8405 12.1926 74.0505C13.0326 76.4705 14.2426 79.9605 15.7326 84.2805C18.7426 92.9105 23.0426 104.781 28.1326 117.761C33.2326 130.741 38.1526 142.371 41.8126 150.741C43.6526 154.921 45.1426 158.311 46.1726 160.651C46.6826 161.821 47.0826 162.731 47.3526 163.351C47.6126 163.971 47.7426 164.301 47.7226 164.311H47.7126Z" style="--orig-fill: url(#paint9_linear_2904_50356)"/>
<path d="M42.0625 164.63C42.0625 164.63 41.8825 164.38 41.6025 163.87C41.3225 163.36 40.9125 162.6 40.3825 161.63C39.8525 160.66 39.2225 159.46 38.5125 158.05C37.8025 156.64 36.9825 155.05 36.1325 153.25C34.3925 149.68 32.4425 145.38 30.3725 140.56C28.3225 135.73 26.1725 130.38 24.0525 124.71C19.8325 113.36 16.5025 102.92 14.2125 95.3302C13.0625 91.5402 12.1725 88.4503 11.5825 86.3203C11.2925 85.2503 11.0625 84.4202 10.9125 83.8602C10.7625 83.2902 10.7025 83.0002 10.7225 82.9902C10.7425 82.9902 10.8525 83.2703 11.0325 83.8203C11.2125 84.3803 11.4725 85.1902 11.8125 86.2502C12.4825 88.3602 13.4425 91.4202 14.6325 95.2002C17.0325 102.75 20.4225 113.16 24.6325 124.49C26.7525 130.15 28.8825 135.5 30.8925 140.33C32.9325 145.15 34.8325 149.47 36.5125 153.05C37.3325 154.85 38.1225 156.46 38.8025 157.88C39.4725 159.3 40.0725 160.52 40.5725 161.51C41.0625 162.51 41.4325 163.28 41.6925 163.8C41.9425 164.33 42.0625 164.61 42.0425 164.62L42.0625 164.63Z" style="--orig-fill: url(#paint10_linear_2904_50356)"/>
<path d="M37.9731 168.121C37.9731 168.121 37.7831 167.911 37.4631 167.481C37.1531 167.051 36.7131 166.401 36.1831 165.531C35.1231 163.811 33.7531 161.221 32.2031 157.961C29.0531 151.471 24.9731 142.351 21.1631 132.011C17.3431 121.671 14.4631 112.111 12.6331 105.131C11.7031 101.641 11.0331 98.8007 10.5931 96.8307C10.3831 95.8407 10.2131 95.0807 10.1031 94.5607C10.0031 94.0407 9.9531 93.7607 9.9731 93.7607C9.9931 93.7607 10.0831 94.0207 10.2231 94.5307C10.3631 95.0407 10.5631 95.8007 10.8231 96.7707C11.3331 98.7207 12.0831 101.541 13.0531 105.011C14.9831 111.951 17.9231 121.481 21.7431 131.791C25.5431 142.111 29.5531 151.231 32.5931 157.771C34.0931 161.051 35.3931 163.661 36.3831 165.411C36.8731 166.291 37.2831 166.961 37.5531 167.411C37.8331 167.861 37.9731 168.101 37.9531 168.121H37.9731Z" style="--orig-fill: url(#paint11_linear_2904_50356)"/>
<path d="M33.4327 171.39C33.4327 171.39 33.2927 171.19 33.0827 170.79C32.8827 170.38 32.5727 169.78 32.1927 169.01C31.4327 167.46 30.3427 165.21 29.0327 162.41C26.4127 156.82 22.8727 149.05 19.3727 140.3C17.6327 135.92 16.0827 131.7 14.7627 127.83C13.4627 123.96 12.3727 120.44 11.5427 117.46C11.1127 115.98 10.7727 114.62 10.4727 113.43C10.1627 112.24 9.92272 111.21 9.74272 110.37C9.56272 109.53 9.42272 108.87 9.32272 108.42C9.23272 107.97 9.20272 107.74 9.22272 107.73C9.24272 107.73 9.32273 107.95 9.45273 108.39C9.57273 108.83 9.75273 109.47 9.98273 110.31C10.2027 111.14 10.4727 112.16 10.8227 113.34C11.1627 114.52 11.5227 115.86 11.9827 117.34C12.8527 120.3 13.9927 123.79 15.3227 127.64C16.6727 131.49 18.2327 135.69 19.9627 140.06C23.4527 148.8 26.9227 156.59 29.4427 162.22C30.7027 165.04 31.7127 167.32 32.4127 168.9C32.7527 169.69 33.0227 170.31 33.2027 170.73C33.3727 171.15 33.4527 171.38 33.4427 171.39H33.4327Z" style="--orig-fill: url(#paint12_linear_2904_50356)"/>
<path d="M28.2624 171.121C28.2624 171.121 27.8124 170.491 27.0824 169.301C26.3524 168.111 25.3524 166.361 24.1724 164.171C21.8024 159.791 18.7724 153.601 15.9624 146.531C13.1624 139.461 11.1224 132.871 9.85237 128.061C9.21237 125.651 8.74237 123.691 8.45237 122.331C8.16237 120.971 8.02237 120.211 8.06237 120.201C8.10237 120.201 8.32236 120.931 8.69236 122.271C9.05236 123.611 9.58237 125.551 10.2824 127.941C11.6624 132.711 13.7624 139.251 16.5524 146.301C19.3524 153.341 22.3024 159.551 24.5624 163.971C25.6924 166.181 26.6324 167.961 27.2924 169.191C27.9524 170.421 28.2924 171.111 28.2524 171.131L28.2624 171.121Z" style="--orig-fill: url(#paint13_linear_2904_50356)"/>
<path d="M22.0525 174.151C22.0525 174.151 21.6825 173.631 21.1125 172.621C20.5425 171.621 19.7625 170.141 18.8425 168.301C17.0025 164.611 14.6825 159.391 12.5925 153.451C10.5025 147.511 9.04247 141.991 8.16247 137.961C7.72247 135.951 7.40246 134.311 7.22246 133.171C7.03246 132.031 6.95247 131.401 6.99247 131.391C7.03247 131.391 7.20247 132.001 7.46247 133.121C7.71247 134.241 8.10248 135.861 8.59248 137.861C9.58248 141.851 11.1025 147.331 13.1825 153.251C15.2725 159.171 17.5125 164.391 19.2425 168.121C20.1025 169.991 20.8225 171.491 21.3325 172.521C21.8325 173.561 22.0925 174.141 22.0525 174.161V174.151Z" style="--orig-fill: url(#paint14_linear_2904_50356)"/>
<path d="M17.5725 172.971C17.5725 172.971 17.2425 172.681 16.7325 172.081C16.2225 171.491 15.5225 170.591 14.7125 169.451C13.0725 167.181 11.0225 163.871 9.22247 159.991C7.43247 156.101 6.24248 152.401 5.57248 149.681C5.23248 148.321 5.00248 147.211 4.88248 146.441C4.75248 145.671 4.70247 145.241 4.75247 145.231C4.85247 145.211 5.22247 146.901 6.00247 149.571C6.78247 152.241 8.02248 155.881 9.79248 159.731C11.5725 163.581 13.5425 166.881 15.0725 169.211C16.6025 171.531 17.6425 172.911 17.5625 172.971H17.5725Z" style="--orig-fill: url(#paint15_linear_2904_50356)"/>
<path d="M48.7432 80.5203C48.7432 80.5203 48.6132 80.2403 48.4232 79.7003C48.2332 79.1603 47.9632 78.3503 47.6132 77.3204C46.9332 75.2403 45.9532 72.2403 44.7432 68.5303C44.1432 66.6703 43.4832 64.6403 42.7732 62.4603C42.0532 60.2803 41.3232 57.9403 40.4532 55.5203C38.7332 50.6603 36.6832 45.3803 34.2932 39.9303C29.5132 29.0303 24.2832 19.5903 20.2232 12.9403C18.1932 9.61035 16.4832 6.96035 15.2932 5.13035C14.6932 4.22035 14.2332 3.51034 13.9232 3.03034C13.6132 2.54034 13.4632 2.28033 13.4832 2.27033C13.5032 2.26033 13.6932 2.49033 14.0332 2.96033C14.3732 3.43033 14.8632 4.11034 15.5032 5.00034C16.7532 6.79034 18.5332 9.40033 20.6132 12.7103C24.7832 19.3203 30.0932 28.7603 34.8832 39.6903C37.2732 45.1503 39.3232 50.4603 41.0132 55.3403C41.8732 57.7803 42.5932 60.1203 43.2832 62.3103C43.9632 64.5003 44.6032 66.5403 45.1832 68.4103C46.3132 72.1503 47.2232 75.1704 47.8632 77.2604C48.1632 78.3104 48.4032 79.1203 48.5632 79.6803C48.7132 80.2303 48.7832 80.5303 48.7632 80.5404L48.7432 80.5203Z" style="--orig-fill: url(#paint16_linear_2904_50356)"/>
<path d="M47.7825 63.0404C47.7825 63.0404 47.6725 62.8304 47.5225 62.4104C47.3825 61.9804 47.1725 61.3604 46.8925 60.5604C46.3725 58.9404 45.6225 56.6004 44.7025 53.7004C42.7625 47.9504 40.5025 39.8404 36.6725 31.4104C32.9125 22.9504 28.8425 15.6004 25.8325 10.3304C24.3125 7.70039 23.0825 5.57041 22.2325 4.10041C21.8125 3.36041 21.4825 2.7904 21.2625 2.4004C21.0425 2.0104 20.9425 1.80041 20.9625 1.79041C20.9825 1.78041 21.1225 1.9704 21.3725 2.3404C21.6225 2.7204 21.9825 3.27042 22.4425 3.98042C23.3525 5.41042 24.6625 7.50039 26.2225 10.1104C29.3325 15.3304 33.4725 22.6604 37.2525 31.1604C41.1025 39.6404 43.3025 47.7904 45.1325 53.5804C45.9725 56.5004 46.6625 58.8604 47.1325 60.4904C47.3525 61.3104 47.5325 61.9504 47.6425 62.3804C47.7525 62.8104 47.8025 63.0404 47.7825 63.0504V63.0404Z" style="--orig-fill: url(#paint17_linear_2904_50356)"/>
<path d="M48.663 45.9604C48.663 45.9604 48.413 45.3204 48.073 44.1304C47.913 43.5304 47.703 42.8104 47.443 41.9704C47.183 41.1304 46.913 40.1704 46.553 39.1304C45.873 37.0304 44.973 34.5604 43.903 31.8404C42.813 29.1304 41.543 26.1904 40.113 23.1304C37.233 17.0304 34.343 11.6504 32.263 7.75038C31.223 5.80038 30.393 4.21037 29.813 3.12037C29.243 2.02037 28.943 1.40038 28.983 1.38038C29.023 1.36038 29.393 1.94038 30.023 3.00038C30.663 4.06038 31.563 5.61039 32.653 7.54039C34.833 11.3904 37.793 16.7504 40.683 22.8704C42.123 25.9304 43.383 28.9004 44.443 31.6304C45.483 34.3704 46.353 36.8704 46.973 39.0004C47.313 40.0604 47.553 41.0304 47.783 41.8804C48.013 42.7304 48.183 43.4704 48.313 44.0804C48.573 45.2904 48.703 45.9604 48.663 45.9704V45.9604Z" style="--orig-fill: url(#paint18_linear_2904_50356)"/>
<path d="M51.0433 34.1205C51.0433 34.1205 50.8233 33.6605 50.5433 32.8005C50.2533 31.9405 49.8433 30.7005 49.3333 29.1705C48.2933 26.1105 46.7433 21.9305 44.7433 17.4305C42.7333 12.9305 40.6633 8.98054 39.0833 6.16054C38.2833 4.76054 37.6433 3.62052 37.1933 2.83052C36.7433 2.04052 36.5133 1.60054 36.5533 1.57054C36.5933 1.55054 36.8933 1.95051 37.4033 2.70051C37.9233 3.44051 38.6333 4.55053 39.4633 5.94053C41.1433 8.71053 43.2933 12.6505 45.3133 17.1805C47.3233 21.7105 48.8133 25.9405 49.7433 29.0405C50.2133 30.5905 50.5533 31.8605 50.7633 32.7405C50.9733 33.6205 51.0733 34.1105 51.0333 34.1305L51.0433 34.1205Z" style="--orig-fill: url(#paint19_linear_2904_50356)"/>
<path d="M51.3826 21.8207C51.3026 21.8507 50.8626 20.7806 50.1926 19.0506C49.5226 17.3206 48.5826 14.9306 47.5626 12.3006C46.5026 9.68064 45.5426 7.30064 44.8426 5.58064C44.1426 3.86064 43.7326 2.79066 43.8126 2.75066C43.8926 2.71066 44.4426 3.72065 45.2526 5.40065C46.0526 7.08065 47.1026 9.43066 48.1426 12.0707C49.1926 14.7107 50.0426 17.1407 50.6126 18.9107C51.1826 20.6807 51.4626 21.8006 51.3826 21.8306V21.8207Z" style="--orig-fill: url(#paint20_linear_2904_50356)"/>
<path d="M52.6429 14.1005C52.4629 14.1405 51.7229 11.5105 50.5129 8.3805C49.3129 5.2505 48.1029 2.80049 48.2729 2.71049C48.4129 2.63049 49.8929 4.97049 51.1029 8.15049C52.3329 11.3305 52.8029 14.0605 52.6429 14.0905V14.1005Z" style="--orig-fill: url(#paint21_linear_2904_50356)"/>
<path d="M36.8332 1.97043C36.8332 1.97043 37.0632 1.68042 37.5432 1.18042L37.6532 1.28043C37.0932 2.11043 36.1632 3.49043 34.9232 5.32043C34.3232 6.25043 33.6532 7.30041 32.9232 8.45041C32.1932 9.60041 31.4632 10.9004 30.6332 12.2604C27.4132 17.7604 23.8332 25.0204 20.7732 33.2504C19.0032 38.0904 17.5932 42.7904 16.4832 47.1104C15.9832 49.2804 15.4532 51.3404 15.0932 53.2904C14.9032 54.2604 14.7132 55.2004 14.5332 56.1104C14.3832 57.0204 14.2432 57.8904 14.1032 58.7304C13.8032 60.3904 13.6332 61.9104 13.4532 63.2404C13.2632 64.5704 13.1332 65.7204 13.0432 66.6604C12.9432 67.6004 12.8532 68.3304 12.8032 68.8204C12.7432 69.3104 12.6932 69.5704 12.6732 69.5704C12.6532 69.5704 12.6532 69.3104 12.6732 68.8104C12.7032 68.3104 12.7432 67.5804 12.7932 66.6304C12.8432 65.6804 12.9332 64.5304 13.0932 63.1904C13.2432 61.8504 13.3832 60.3304 13.6532 58.6504C13.7832 57.8104 13.9132 56.9304 14.0432 56.0204C14.2132 55.1104 14.3832 54.1604 14.5632 53.1804C14.9032 51.2104 15.4132 49.1504 15.9032 46.9604C16.9932 42.6104 18.3832 37.8804 20.1732 33.0204C23.2532 24.7504 26.8932 17.4704 30.2032 12.0004C31.0432 10.6404 31.8032 9.35042 32.5532 8.21042C33.3132 7.07042 34.0132 6.03041 34.6232 5.11041C35.9132 3.30041 36.9132 1.96041 37.5132 1.17041L37.6232 1.27042C37.1132 1.74042 36.8332 1.97042 36.8132 1.96042L36.8332 1.97043Z" style="--orig-fill: url(#paint22_linear_2904_50356)"/>
<path d="M30.6132 0.980469C30.6132 0.980469 30.2532 1.67045 29.5032 2.84045C29.1232 3.42045 28.6633 4.14045 28.1633 4.99045C27.6533 5.84045 27.0533 6.78045 26.4433 7.87045C25.1833 10.0105 23.7933 12.6205 22.3433 15.5705C20.9233 18.5305 19.4733 21.8305 18.1233 25.3705C16.8033 28.9205 15.7132 32.3604 14.8332 35.5204C13.9832 38.6904 13.3133 41.5705 12.8433 44.0105C12.5833 45.2205 12.4133 46.3405 12.2333 47.3105C12.0533 48.2805 11.9233 49.1205 11.8233 49.8105C11.6133 51.1805 11.4733 51.9405 11.4333 51.9405C11.3933 51.9405 11.4432 51.1705 11.5832 49.7805C11.6432 49.0905 11.7433 48.2405 11.8833 47.2605C12.0233 46.2805 12.1633 45.1605 12.4033 43.9405C12.8133 41.4805 13.4433 38.5705 14.2733 35.3805C15.1333 32.1905 16.2033 28.7205 17.5333 25.1605C18.8833 21.6005 20.3633 18.2805 21.8233 15.3205C23.3033 12.3705 24.7533 9.77045 26.0633 7.65045C26.6933 6.57045 27.3332 5.64046 27.8632 4.81046C28.3932 3.98046 28.8833 3.28045 29.2933 2.71045C30.1033 1.58045 30.5733 0.960448 30.6033 0.990448L30.6132 0.980469Z" style="--orig-fill: url(#paint23_linear_2904_50356)"/>
<path d="M21.5526 1.41049C21.5526 1.41049 21.5426 1.41049 21.5226 1.41049C21.5126 1.41049 21.4926 1.41048 21.4826 1.37048C21.4826 1.33048 21.5026 1.32048 21.5226 1.30048C21.5626 1.27048 21.6126 1.25049 21.6826 1.25049C21.7126 1.25049 21.7726 1.2605 21.8026 1.3205C21.8326 1.3805 21.8226 1.42049 21.8126 1.47049C21.7726 1.66049 21.5726 1.78048 21.5226 1.93048C21.4526 2.14048 21.3726 2.38048 21.2826 2.65048C20.9126 3.72048 20.3526 5.27048 19.6526 7.18048C18.9626 9.09048 18.1526 11.3605 17.2426 13.8905C16.2826 16.4005 15.4226 19.2105 14.6026 22.1905C12.9626 28.1505 12.0226 33.6805 11.4826 37.7005C11.2026 39.7105 11.0426 41.3405 10.9126 42.4705C10.8026 43.6005 10.7126 44.2205 10.6726 44.2205C10.6326 44.2205 10.6326 43.5905 10.6726 42.4505C10.7326 41.3105 10.8226 39.6705 11.0426 37.6505C11.4726 33.6105 12.3526 28.0305 14.0026 22.0305C14.8226 19.0305 15.7126 16.2005 16.7026 13.7005C17.6526 11.1805 18.4926 8.91048 19.2426 7.02048C19.9926 5.13048 20.6126 3.61049 21.0626 2.56049C21.1726 2.30049 21.2726 2.07048 21.3626 1.87048C21.4926 1.62048 21.6726 1.56049 21.7026 1.44049C21.7626 1.33049 21.6326 1.35048 21.5726 1.37048C21.4926 1.37048 21.5926 1.40049 21.5726 1.41049H21.5526Z" style="--orig-fill: url(#paint24_linear_2904_50356)"/>
<path d="M16.0332 2.14035C16.1232 2.18035 15.5532 3.62038 14.7232 5.98038C13.8932 8.34038 12.8432 11.6304 11.9532 15.3304C11.0632 19.0304 10.4932 22.4403 10.1632 24.9203C9.82323 27.4003 9.67323 28.9404 9.57323 28.9304C9.53323 28.9304 9.51324 28.5404 9.53324 27.8404C9.54324 27.1404 9.60323 26.1204 9.72323 24.8704C9.95323 22.3704 10.4432 18.9204 11.3432 15.1904C12.2432 11.4604 13.3732 8.16035 14.3132 5.83035C14.7832 4.66035 15.1932 3.73037 15.5032 3.10037C15.8132 2.47037 16.0032 2.13035 16.0432 2.14035H16.0332Z" style="--orig-fill: url(#paint25_linear_2904_50356)"/>
<path d="M45.5728 2.15039C45.5728 2.15039 45.5328 2.24039 45.4228 2.40039C45.3128 2.56039 45.1528 2.80038 44.9428 3.11038C44.5028 3.72038 43.8628 4.63041 43.0428 5.79041C41.4228 8.1504 39.0728 11.5504 36.4328 15.9204C31.1328 24.6304 24.6628 37.2804 19.9428 52.1404C15.1528 66.9804 13.1728 81.0404 11.8028 91.1504C11.1728 96.2204 10.6528 100.33 10.3028 103.16C10.1228 104.58 9.98281 105.68 9.88281 106.43C9.83281 106.8 9.78281 107.09 9.76281 107.28C9.73281 107.47 9.71281 107.57 9.70281 107.57C9.69281 107.57 9.69281 107.47 9.70281 107.28C9.71281 107.09 9.73281 106.8 9.76281 106.43C9.83281 105.68 9.93281 104.57 10.0628 103.15C10.3428 100.3 10.7528 96.1904 11.3728 91.1104C12.6328 80.9804 14.5428 66.8704 19.3528 51.9704C24.0928 37.0504 30.6528 24.3804 36.0628 15.7104C38.7628 11.3604 41.1728 7.98038 42.8528 5.67038C43.7128 4.52038 44.3928 3.65038 44.8528 3.05038C45.0828 2.76038 45.2628 2.5304 45.3828 2.3804C45.5028 2.2304 45.5728 2.1604 45.5828 2.1604L45.5728 2.15039Z" style="--orig-fill: url(#paint26_linear_2904_50356)"/>
<path d="M52.6229 2.7605C52.6229 2.7605 52.5729 2.85048 52.4529 3.02048C52.3329 3.18048 52.1429 3.42048 51.9029 3.74048C51.4229 4.37048 50.6729 5.2705 49.7729 6.4805C47.9329 8.8705 45.3729 12.4005 42.4629 16.9305C39.5529 21.4605 36.3329 27.0205 33.1629 33.3905C29.9629 39.7505 26.8129 46.9305 23.8129 54.5805C22.3029 58.4005 20.9029 62.1605 19.7129 65.8505C18.5329 69.5305 17.5829 73.1505 16.7829 76.6205C15.1829 83.5605 14.0829 89.8905 13.0729 95.1905C12.0629 100.49 11.2429 104.77 10.6729 107.74C10.3729 109.22 10.1429 110.37 9.99291 111.15C9.91291 111.54 9.8429 111.83 9.8029 112.03C9.7529 112.23 9.72291 112.33 9.71291 112.33C9.70291 112.33 9.71291 112.22 9.73291 112.02C9.76291 111.82 9.8029 111.52 9.8629 111.13C9.9929 110.35 10.1829 109.19 10.4329 107.7C10.9529 104.73 11.7029 100.43 12.6329 95.1205C13.5929 89.8105 14.6429 83.4705 16.2229 76.5005C17.0229 73.0205 17.9529 69.3805 19.1329 65.6705C20.3129 61.9605 21.7129 58.1905 23.2329 54.3605C26.2329 46.6905 29.4129 39.5005 32.6529 33.1305C35.8629 26.7505 39.1329 21.2005 42.0929 16.6805C45.0529 12.1605 47.6829 8.6605 49.5829 6.3205C50.5129 5.1305 51.3029 4.26048 51.8129 3.65048C52.0729 3.35048 52.2729 3.12049 52.4129 2.97049C52.5529 2.82049 52.6229 2.75049 52.6329 2.75049L52.6229 2.7605Z" style="--orig-fill: url(#paint27_linear_2904_50356)"/>
<path d="M52.6631 13.5304C52.6631 13.5304 52.6131 13.6304 52.4931 13.8004C52.3731 13.9704 52.1831 14.2204 51.9431 14.5504C51.4531 15.2104 50.7431 16.1804 49.8231 17.4304C47.9931 19.9404 45.4431 23.6404 42.7531 28.4904C37.3831 38.1904 30.5331 51.9504 24.5231 67.7904C21.5131 75.7004 18.9731 83.3604 16.8931 90.4004C14.8231 97.4404 13.2331 103.86 11.9831 109.26C10.7631 114.67 9.89307 119.08 9.31307 122.13C9.02307 123.66 8.80306 124.84 8.65306 125.64C8.57306 126.04 8.50306 126.35 8.46306 126.55C8.41306 126.75 8.39306 126.86 8.37306 126.86C8.36306 126.86 8.37307 126.75 8.39307 126.54C8.42307 126.33 8.46306 126.02 8.52306 125.62C8.64306 124.81 8.83307 123.62 9.06307 122.08C9.56307 119.01 10.3731 114.59 11.5331 109.15C12.7331 103.72 14.2831 97.2804 16.3231 90.2204C18.3731 83.1604 20.9031 75.4804 23.9231 67.5504C29.9431 51.6804 36.8731 37.9204 42.3531 28.2504C45.1031 23.4104 47.7231 19.7304 49.6131 17.2704C50.5531 16.0404 51.3131 15.0904 51.8331 14.4604C52.0931 14.1504 52.2931 13.9104 52.4331 13.7504C52.5731 13.5904 52.6431 13.5104 52.6531 13.5204L52.6631 13.5304Z" style="--orig-fill: url(#paint28_linear_2904_50356)"/>
<path d="M49.1425 31.3804C49.1425 31.3804 49.1125 31.4803 49.0325 31.6703C48.9425 31.8503 48.8125 32.1304 48.6425 32.4804C48.2925 33.1904 47.7725 34.2304 47.1125 35.5804C46.4325 36.9204 45.6125 38.5604 44.6825 40.4804C43.7525 42.4004 42.6625 44.5704 41.5225 47.0004C39.1925 51.8404 36.5225 57.6404 33.6525 64.1304C30.8125 70.6304 27.7925 77.8203 24.7925 85.4503C21.8125 93.0803 19.1525 100.41 16.8225 107.11C14.5225 113.82 12.5425 119.9 10.9625 125.03C10.1525 127.59 9.47246 129.92 8.86246 131.96C8.24246 134 7.73247 135.76 7.32247 137.21C6.90247 138.65 6.57247 139.77 6.34247 140.53C6.22247 140.91 6.13247 141.19 6.07247 141.39C6.01247 141.58 5.97247 141.68 5.96247 141.68C5.95247 141.68 5.96247 141.57 6.01247 141.38C6.06247 141.18 6.13246 140.89 6.22246 140.5C6.42246 139.73 6.71246 138.6 7.08246 137.15C7.46246 135.7 7.93247 133.92 8.52247 131.87C9.11247 129.82 9.75247 127.47 10.5425 124.91C12.0625 119.76 14.0025 113.66 16.2725 106.93C18.5725 100.21 21.2225 92.8604 24.2025 85.2204C27.2025 77.5904 30.2425 70.3904 33.1225 63.9004C36.0225 57.4204 38.7425 51.6204 41.1225 46.8104C42.2925 44.3904 43.4125 42.2304 44.3725 40.3304C45.3325 38.4204 46.1925 36.8004 46.9025 35.4804C47.6125 34.1604 48.1725 33.1304 48.5425 32.4304C48.7325 32.0904 48.8825 31.8204 48.9825 31.6504C49.0825 31.4704 49.1425 31.3904 49.1525 31.3904L49.1425 31.3804Z" style="--orig-fill: url(#paint29_linear_2904_50356)"/>
<path d="M48.0931 60.6904C48.0931 60.6904 48.0731 60.7904 47.9931 60.9604C47.9131 61.1304 47.7931 61.3904 47.6331 61.7304C47.3131 62.4004 46.8331 63.4004 46.2131 64.6704C44.9631 67.2204 43.1431 70.9004 40.9031 75.4504C36.4131 84.5504 30.1931 97.1104 23.6931 111.16C20.4531 118.19 17.4731 124.93 14.8431 131.1C12.2331 137.28 9.96309 142.87 8.14309 147.61C7.20309 149.97 6.42309 152.12 5.71309 154.01C4.99309 155.89 4.40309 157.52 3.92309 158.86C3.43309 160.19 3.05309 161.22 2.79309 161.93C2.65309 162.28 2.55309 162.54 2.48309 162.72C2.41309 162.9 2.36309 162.99 2.35309 162.98C2.34309 162.98 2.36308 162.88 2.41308 162.7C2.47308 162.52 2.55308 162.24 2.66308 161.89C2.89308 161.18 3.23309 160.13 3.68309 158.78C4.12309 157.43 4.68309 155.79 5.37309 153.89C6.05309 151.99 6.80309 149.82 7.71309 147.45C9.48309 142.69 11.7131 137.07 14.2931 130.88C16.8931 124.69 19.8631 117.94 23.1031 110.9C29.6031 96.8404 35.8931 84.3004 40.4831 75.2604C42.8031 70.7504 44.6731 67.1004 45.9731 64.5704C46.6331 63.3204 47.1531 62.3404 47.5031 61.6804C47.6831 61.3504 47.8231 61.1004 47.9131 60.9404C48.0131 60.7704 48.0631 60.6904 48.0731 60.7004L48.0931 60.6904Z" style="--orig-fill: url(#paint30_linear_2904_50356)"/>
<path d="M48.7231 45.9404C48.7231 45.9404 48.6831 46.0404 48.5931 46.2104C48.4931 46.3804 48.3431 46.6304 48.1531 46.9604C47.7531 47.6104 47.1631 48.5804 46.4031 49.8204C44.8931 52.3104 42.7431 55.9404 40.2431 60.5004C35.2031 69.6104 28.9631 82.5904 22.9531 97.3104C19.9431 104.66 17.2231 111.73 14.7931 118.18C12.3631 124.63 10.2031 130.44 8.57309 135.38C6.93309 140.32 5.82308 144.39 5.13308 147.21C4.78308 148.62 4.53308 149.73 4.36308 150.47C4.27308 150.84 4.21308 151.13 4.16308 151.32C4.11308 151.51 4.08309 151.61 4.07309 151.61C4.06309 151.61 4.07308 151.51 4.10308 151.31C4.13308 151.12 4.18308 150.83 4.24308 150.45C4.36308 149.69 4.58309 148.58 4.89309 147.16C5.51309 144.31 6.55309 140.21 8.14309 135.24C9.71309 130.27 11.8331 124.43 14.2431 117.97C16.6431 111.51 19.3431 104.43 22.3631 97.0704C28.3831 82.3404 34.7031 69.3604 39.8531 60.2904C42.4131 55.7404 44.6231 52.1504 46.1931 49.7004C46.9931 48.4804 47.6231 47.5404 48.0431 46.9004C48.2631 46.5804 48.4231 46.3404 48.5331 46.1804C48.6431 46.0204 48.7131 45.9404 48.7231 45.9504V45.9404Z" style="--orig-fill: url(#paint31_linear_2904_50356)"/>
<path d="M48.0229 62.0605C48.0229 62.0605 48.0129 62.1605 47.9629 62.3505C47.9029 62.5405 47.8229 62.8205 47.7129 63.2005C47.4829 63.9405 47.1429 65.0305 46.7029 66.4405C46.4829 67.1405 46.2329 67.9205 45.9629 68.7705C45.6629 69.6105 45.3429 70.5305 44.9929 71.5205C44.2829 73.4905 43.5229 75.7405 42.5429 78.1905C41.6029 80.6505 40.5529 83.3405 39.3529 86.1905C38.1929 89.0605 36.8529 92.0905 35.4729 95.2805C32.6529 101.641 29.4329 108.581 26.0029 115.841C22.5729 123.101 19.3129 130.011 16.4229 136.341C15.0029 139.511 13.6229 142.521 12.4129 145.361C11.1629 148.191 10.0629 150.851 9.07289 153.281C8.04289 155.701 7.22289 157.931 6.45289 159.871C5.67289 161.811 5.0629 163.501 4.5629 164.881C4.0529 166.261 3.6529 167.331 3.3929 168.061C3.2529 168.421 3.14289 168.701 3.07289 168.881C2.99289 169.061 2.95288 169.161 2.94288 169.151C2.93288 169.151 2.95289 169.051 3.01289 168.861C3.07289 168.671 3.16289 168.391 3.27289 168.021C3.51289 167.281 3.87288 166.201 4.33288 164.801C4.79288 163.401 5.37289 161.701 6.12289 159.741C6.85289 157.781 7.65289 155.541 8.66289 153.101C9.63289 150.651 10.7129 147.98 11.9429 145.141C13.1329 142.281 14.4929 139.271 15.9029 136.091C18.7629 129.751 22.0129 122.821 25.4429 115.561C28.8729 108.301 32.1029 101.371 34.9529 95.0305C36.3529 91.8505 37.7029 88.8305 38.8829 85.9805C40.1029 83.1405 41.1729 80.4705 42.1429 78.0205C43.1429 75.5905 43.9329 73.3505 44.6729 71.3905C45.0329 70.4105 45.3729 69.5005 45.6829 68.6605C45.9729 67.8105 46.2429 67.0405 46.4829 66.3505C46.9729 64.9605 47.3529 63.8905 47.6029 63.1505C47.7329 62.7905 47.8429 62.5105 47.9129 62.3205C47.9829 62.1305 48.0229 62.0405 48.0429 62.0405L48.0229 62.0605Z" style="--orig-fill: url(#paint32_linear_2904_50356)"/>
<path d="M49.4429 76.0906C49.4429 76.0906 49.4429 76.1806 49.4029 76.3506C49.3629 76.5206 49.3129 76.7806 49.2229 77.1106C49.0529 77.7706 48.7829 78.7406 48.3929 79.9806C47.6229 82.4606 46.3029 85.9806 44.6129 90.2906C41.2529 98.9306 36.2029 110.711 30.1629 123.511C24.1129 136.301 18.3029 147.721 14.0629 155.951C11.9229 160.061 10.1829 163.381 8.98289 165.681C8.37289 166.821 7.89289 167.711 7.57289 168.311C7.24289 168.911 7.06289 169.221 7.04289 169.211C7.02289 169.211 7.16289 168.871 7.46289 168.251C7.76289 167.641 8.20289 166.731 8.77289 165.571C9.93289 163.251 11.6029 159.891 13.6729 155.751C17.8129 147.461 23.5629 136.021 29.6029 123.241C35.6329 110.461 40.7429 98.7206 44.2029 90.1206C45.9529 85.8306 47.3329 82.3406 48.1629 79.9006C48.5829 78.6806 48.8929 77.7206 49.1029 77.0706C49.3129 76.4206 49.4229 76.0806 49.4429 76.0806V76.0906Z" style="--orig-fill: url(#paint33_linear_2904_50356)"/>
<path d="M49.3725 89.3306C49.3725 89.3306 49.3025 89.6406 49.1125 90.2106C48.9125 90.7806 48.6325 91.6206 48.2625 92.6906C47.5125 94.8406 46.3725 97.9406 44.9225 101.751C42.0125 109.371 37.7525 119.811 32.5725 131.131C27.3825 142.441 22.2525 152.491 18.3725 159.661C16.4325 163.251 14.8325 166.131 13.6825 168.111C13.1025 169.091 12.6625 169.861 12.3525 170.381C12.0425 170.891 11.8725 171.161 11.8525 171.151C11.8325 171.141 11.9725 170.851 12.2425 170.321C12.5225 169.791 12.9325 169.001 13.4625 168.001C14.5225 165.981 16.0725 163.071 17.9725 159.461C21.7525 152.241 26.8025 142.181 31.9925 130.881C37.1725 119.581 41.4925 109.181 44.5025 101.601C45.9925 97.8106 47.1925 94.7406 48.0325 92.6106C48.4525 91.5506 48.7725 90.7306 48.9925 90.1706C49.2225 89.6106 49.3525 89.3306 49.3725 89.3306Z" style="--orig-fill: url(#paint34_linear_2904_50356)"/>
<path d="M49.703 102.56C49.703 102.56 49.6629 102.83 49.5229 103.34C49.3729 103.84 49.153 104.58 48.8729 105.53C48.3029 107.43 47.4229 110.17 46.2629 113.53C43.9529 120.25 40.4429 129.43 35.9429 139.3C31.4329 149.16 26.8029 157.83 23.2429 163.98C21.4629 167.05 19.9829 169.52 18.9129 171.19C18.3729 172.03 17.9629 172.67 17.6829 173.12C17.3929 173.56 17.2329 173.78 17.2129 173.77C17.1929 173.76 17.3229 173.51 17.5729 173.05C17.8329 172.6 18.213 171.93 18.703 171.06C19.703 169.35 21.1329 166.85 22.8529 163.75C26.3129 157.56 30.8729 148.88 35.3729 139.03C39.8629 129.18 43.433 120.05 45.843 113.38C47.053 110.05 48.003 107.34 48.643 105.46C48.973 104.52 49.2229 103.8 49.403 103.3C49.583 102.81 49.6829 102.55 49.7129 102.56H49.703Z" style="--orig-fill: url(#paint35_linear_2904_50356)"/>
<path d="M50.4927 115.8C50.4927 115.8 50.4727 116.03 50.3727 116.44C50.2727 116.85 50.1127 117.46 49.8727 118.23C49.4127 119.78 48.6627 121.99 47.5927 124.67C46.5327 127.36 45.1727 130.5 43.6627 134C42.1527 137.49 40.4727 141.33 38.6627 145.34C35.0527 153.36 31.5127 160.5 28.7427 165.56C27.3627 168.09 26.1927 170.11 25.3627 171.49C24.9427 172.17 24.6127 172.71 24.3827 173.07C24.1527 173.43 24.0227 173.61 24.0027 173.6C23.9827 173.59 24.0727 173.39 24.2727 173.01C24.4727 172.64 24.7727 172.08 25.1527 171.38C25.9127 169.96 27.0227 167.91 28.3527 165.36C31.0127 160.26 34.4827 153.1 38.0927 145.09C39.8827 141.08 41.5827 137.25 43.1327 133.78C44.6727 130.3 46.0827 127.17 47.1827 124.52C48.2927 121.87 49.1027 119.69 49.6327 118.17C49.8927 117.41 50.1027 116.82 50.2427 116.42C50.3827 116.02 50.4627 115.81 50.4827 115.82L50.4927 115.8Z" style="--orig-fill: url(#paint36_linear_2904_50356)"/>
<path d="M51.1425 125.891C51.1425 125.891 51.0525 126.581 50.7824 127.811C50.5224 129.041 50.0724 130.811 49.4424 132.971C48.2124 137.301 46.1424 143.181 43.4424 149.491C40.7324 155.801 37.9824 161.371 35.9524 165.381C34.9324 167.381 34.1024 169.001 33.5024 170.111C32.9124 171.221 32.5624 171.821 32.5224 171.801C32.4824 171.781 32.7524 171.141 33.2824 170.001C33.8224 168.861 34.5924 167.221 35.5524 165.191C37.4724 161.131 40.1524 155.541 42.8624 149.251C45.5624 142.961 47.6724 137.131 49.0124 132.851C49.6824 130.711 50.2024 128.971 50.5324 127.761C50.8724 126.551 51.0824 125.891 51.1224 125.901L51.1425 125.891Z" style="--orig-fill: url(#paint37_linear_2904_50356)"/>
<path d="M53.3132 140.07C53.3132 140.07 53.2332 140.59 52.9832 141.48C52.7332 142.38 52.3432 143.67 51.8132 145.25C50.7632 148.42 49.1432 152.74 47.0532 157.38C44.9532 162.02 42.7832 166.09 41.0932 168.97C40.2532 170.41 39.5432 171.56 39.0332 172.34C38.5232 173.12 38.2232 173.54 38.1832 173.52C38.1432 173.5 38.3732 173.03 38.8232 172.22C39.2732 171.4 39.9132 170.22 40.7032 168.76C42.2832 165.83 44.3832 161.75 46.4732 157.13C48.5632 152.51 50.2332 148.23 51.3932 145.11C51.9632 143.55 52.4232 142.29 52.7432 141.41C53.0632 140.54 53.2632 140.06 53.3032 140.07H53.3132Z" style="--orig-fill: url(#paint38_linear_2904_50356)"/>
<defs>
<linearGradient id="paint0_linear_2904_50356" x1="-31.2172" y1="167.6" x2="43.4428" y2="-13.0697" gradientUnits="userSpaceOnUse">
<stop stop-color="#F7E57E"/>
<stop offset="0.08" stop-color="#B28238"/>
<stop offset="0.12" stop-color="#B98D40"/>
<stop offset="0.18" stop-color="#CEAB55"/>
<stop offset="0.24" stop-color="#E6CD6D"/>
<stop offset="0.39" stop-color="#F5EBA8"/>
<stop offset="0.5" stop-color="#FFFFD0"/>
<stop offset="0.62" stop-color="#FAF1A6"/>
<stop offset="0.73" stop-color="#F8E888"/>
<stop offset="0.79" stop-color="#F7E57E"/>
<stop offset="0.82" stop-color="#F3DF78"/>
<stop offset="0.87" stop-color="#E9CF69"/>
<stop offset="0.92" stop-color="#D8B450"/>
<stop offset="0.98" stop-color="#C08E2C"/>
</linearGradient>
<linearGradient id="paint1_linear_2904_50356" x1="14.6031" y1="186.541" x2="89.2731" y2="5.87067" gradientUnits="userSpaceOnUse">
<stop stop-color="#F7E57E"/>
<stop offset="0.08" stop-color="#B28238"/>
<stop offset="0.12" stop-color="#B98D40"/>
<stop offset="0.18" stop-color="#CEAB55"/>
<stop offset="0.24" stop-color="#E6CD6D"/>
<stop offset="0.39" stop-color="#F5EBA8"/>
<stop offset="0.5" stop-color="#FFFFD0"/>
<stop offset="0.62" stop-color="#FAF1A6"/>
<stop offset="0.73" stop-color="#F8E888"/>
<stop offset="0.79" stop-color="#F7E57E"/>
<stop offset="0.82" stop-color="#F3DF78"/>
<stop offset="0.87" stop-color="#E9CF69"/>
<stop offset="0.92" stop-color="#D8B450"/>
<stop offset="0.98" stop-color="#C08E2C"/>
</linearGradient>
<linearGradient id="paint2_linear_2904_50356" x1="-36.4776" y1="165.42" x2="38.1824" y2="-15.2395" gradientUnits="userSpaceOnUse">
<stop stop-color="#F7E57E"/>
<stop offset="0.08" stop-color="#B28238"/>
<stop offset="0.12" stop-color="#B98D40"/>
<stop offset="0.18" stop-color="#CEAB55"/>
<stop offset="0.24" stop-color="#E6CD6D"/>
<stop offset="0.39" stop-color="#F5EBA8"/>
<stop offset="0.5" stop-color="#FFFFD0"/>
<stop offset="0.62" stop-color="#FAF1A6"/>
<stop offset="0.73" stop-color="#F8E888"/>
<stop offset="0.79" stop-color="#F7E57E"/>
<stop offset="0.82" stop-color="#F3DF78"/>
<stop offset="0.87" stop-color="#E9CF69"/>
<stop offset="0.92" stop-color="#D8B450"/>
<stop offset="0.98" stop-color="#C08E2C"/>
</linearGradient>
<linearGradient id="paint3_linear_2904_50356" x1="-21.5968" y1="171.571" x2="53.0732" y2="-9.08947" gradientUnits="userSpaceOnUse">
<stop stop-color="#F7E57E"/>
<stop offset="0.08" stop-color="#B28238"/>
<stop offset="0.12" stop-color="#B98D40"/>
<stop offset="0.18" stop-color="#CEAB55"/>
<stop offset="0.24" stop-color="#E6CD6D"/>
<stop offset="0.39" stop-color="#F5EBA8"/>
<stop offset="0.5" stop-color="#FFFFD0"/>
<stop offset="0.62" stop-color="#FAF1A6"/>
<stop offset="0.73" stop-color="#F8E888"/>
<stop offset="0.79" stop-color="#F7E57E"/>
<stop offset="0.82" stop-color="#F3DF78"/>
<stop offset="0.87" stop-color="#E9CF69"/>
<stop offset="0.92" stop-color="#D8B450"/>
<stop offset="0.98" stop-color="#C08E2C"/>
</linearGradient>
<linearGradient id="paint4_linear_2904_50356" x1="-19.8569" y1="172.291" x2="54.8131" y2="-8.3694" gradientUnits="userSpaceOnUse">
<stop stop-color="#F7E57E"/>
<stop offset="0.08" stop-color="#B28238"/>
<stop offset="0.12" stop-color="#B98D40"/>
<stop offset="0.18" stop-color="#CEAB55"/>
<stop offset="0.24" stop-color="#E6CD6D"/>
<stop offset="0.39" stop-color="#F5EBA8"/>
<stop offset="0.5" stop-color="#FFFFD0"/>
<stop offset="0.62" stop-color="#FAF1A6"/>
<stop offset="0.73" stop-color="#F8E888"/>
<stop offset="0.79" stop-color="#F7E57E"/>
<stop offset="0.82" stop-color="#F3DF78"/>
<stop offset="0.87" stop-color="#E9CF69"/>
<stop offset="0.92" stop-color="#D8B450"/>
<stop offset="0.98" stop-color="#C08E2C"/>
</linearGradient>
<linearGradient id="paint5_linear_2904_50356" x1="-12.2374" y1="175.441" x2="62.4326" y2="-5.2194" gradientUnits="userSpaceOnUse">
<stop stop-color="#F7E57E"/>
<stop offset="0.08" stop-color="#B28238"/>
<stop offset="0.12" stop-color="#B98D40"/>
<stop offset="0.18" stop-color="#CEAB55"/>
<stop offset="0.24" stop-color="#E6CD6D"/>
<stop offset="0.39" stop-color="#F5EBA8"/>
<stop offset="0.5" stop-color="#FFFFD0"/>
<stop offset="0.62" stop-color="#FAF1A6"/>
<stop offset="0.73" stop-color="#F8E888"/>
<stop offset="0.79" stop-color="#F7E57E"/>
<stop offset="0.82" stop-color="#F3DF78"/>
<stop offset="0.87" stop-color="#E9CF69"/>
<stop offset="0.92" stop-color="#D8B450"/>
<stop offset="0.98" stop-color="#C08E2C"/>
</linearGradient>
<linearGradient id="paint6_linear_2904_50356" x1="-6.20684" y1="177.931" x2="68.4532" y2="-2.72935" gradientUnits="userSpaceOnUse">
<stop stop-color="#F7E57E"/>
<stop offset="0.08" stop-color="#B28238"/>
<stop offset="0.12" stop-color="#B98D40"/>
<stop offset="0.18" stop-color="#CEAB55"/>
<stop offset="0.24" stop-color="#E6CD6D"/>
<stop offset="0.39" stop-color="#F5EBA8"/>
<stop offset="0.5" stop-color="#FFFFD0"/>
<stop offset="0.62" stop-color="#FAF1A6"/>
<stop offset="0.73" stop-color="#F8E888"/>
<stop offset="0.79" stop-color="#F7E57E"/>
<stop offset="0.82" stop-color="#F3DF78"/>
<stop offset="0.87" stop-color="#E9CF69"/>
<stop offset="0.92" stop-color="#D8B450"/>
<stop offset="0.98" stop-color="#C08E2C"/>
</linearGradient>
<linearGradient id="paint7_linear_2904_50356" x1="-2.22766" y1="179.581" x2="72.4323" y2="-1.08932" gradientUnits="userSpaceOnUse">
<stop stop-color="#F7E57E"/>
<stop offset="0.08" stop-color="#B28238"/>
<stop offset="0.12" stop-color="#B98D40"/>
<stop offset="0.18" stop-color="#CEAB55"/>
<stop offset="0.24" stop-color="#E6CD6D"/>
<stop offset="0.39" stop-color="#F5EBA8"/>
<stop offset="0.5" stop-color="#FFFFD0"/>
<stop offset="0.62" stop-color="#FAF1A6"/>
<stop offset="0.73" stop-color="#F8E888"/>
<stop offset="0.79" stop-color="#F7E57E"/>
<stop offset="0.82" stop-color="#F3DF78"/>
<stop offset="0.87" stop-color="#E9CF69"/>
<stop offset="0.92" stop-color="#D8B450"/>
<stop offset="0.98" stop-color="#C08E2C"/>
</linearGradient>
<linearGradient id="paint8_linear_2904_50356" x1="0.942855" y1="180.891" x2="75.6028" y2="0.220587" gradientUnits="userSpaceOnUse">
<stop stop-color="#F7E57E"/>
<stop offset="0.08" stop-color="#B28238"/>
<stop offset="0.12" stop-color="#B98D40"/>
<stop offset="0.18" stop-color="#CEAB55"/>
<stop offset="0.24" stop-color="#E6CD6D"/>
<stop offset="0.39" stop-color="#F5EBA8"/>
<stop offset="0.5" stop-color="#FFFFD0"/>
<stop offset="0.62" stop-color="#FAF1A6"/>
<stop offset="0.73" stop-color="#F8E888"/>
<stop offset="0.79" stop-color="#F7E57E"/>
<stop offset="0.82" stop-color="#F3DF78"/>
<stop offset="0.87" stop-color="#E9CF69"/>
<stop offset="0.92" stop-color="#D8B450"/>
<stop offset="0.98" stop-color="#C08E2C"/>
</linearGradient>
<linearGradient id="paint9_linear_2904_50356" x1="2.70258" y1="181.621" x2="77.3726" y2="0.950563" gradientUnits="userSpaceOnUse">
<stop stop-color="#F7E57E"/>
<stop offset="0.08" stop-color="#B28238"/>
<stop offset="0.12" stop-color="#B98D40"/>
<stop offset="0.18" stop-color="#CEAB55"/>
<stop offset="0.24" stop-color="#E6CD6D"/>
<stop offset="0.39" stop-color="#F5EBA8"/>
<stop offset="0.5" stop-color="#FFFFD0"/>
<stop offset="0.62" stop-color="#FAF1A6"/>
<stop offset="0.73" stop-color="#F8E888"/>
<stop offset="0.79" stop-color="#F7E57E"/>
<stop offset="0.82" stop-color="#F3DF78"/>
<stop offset="0.87" stop-color="#E9CF69"/>
<stop offset="0.92" stop-color="#D8B450"/>
<stop offset="0.98" stop-color="#C08E2C"/>
</linearGradient>
<linearGradient id="paint10_linear_2904_50356" x1="2.53248" y1="181.55" x2="77.2025" y2="0.880211" gradientUnits="userSpaceOnUse">
<stop stop-color="#F7E57E"/>
<stop offset="0.08" stop-color="#B28238"/>
<stop offset="0.12" stop-color="#B98D40"/>
<stop offset="0.18" stop-color="#CEAB55"/>
<stop offset="0.24" stop-color="#E6CD6D"/>
<stop offset="0.39" stop-color="#F5EBA8"/>
<stop offset="0.5" stop-color="#FFFFD0"/>
<stop offset="0.62" stop-color="#FAF1A6"/>
<stop offset="0.73" stop-color="#F8E888"/>
<stop offset="0.79" stop-color="#F7E57E"/>
<stop offset="0.82" stop-color="#F3DF78"/>
<stop offset="0.87" stop-color="#E9CF69"/>
<stop offset="0.92" stop-color="#D8B450"/>
<stop offset="0.98" stop-color="#C08E2C"/>
</linearGradient>
<linearGradient id="paint11_linear_2904_50356" x1="2.98309" y1="181.731" x2="77.6531" y2="1.07075" gradientUnits="userSpaceOnUse">
<stop stop-color="#F7E57E"/>
<stop offset="0.08" stop-color="#B28238"/>
<stop offset="0.12" stop-color="#B98D40"/>
<stop offset="0.18" stop-color="#CEAB55"/>
<stop offset="0.24" stop-color="#E6CD6D"/>
<stop offset="0.39" stop-color="#F5EBA8"/>
<stop offset="0.5" stop-color="#FFFFD0"/>
<stop offset="0.62" stop-color="#FAF1A6"/>
<stop offset="0.73" stop-color="#F8E888"/>
<stop offset="0.79" stop-color="#F7E57E"/>
<stop offset="0.82" stop-color="#F3DF78"/>
<stop offset="0.87" stop-color="#E9CF69"/>
<stop offset="0.92" stop-color="#D8B450"/>
<stop offset="0.98" stop-color="#C08E2C"/>
</linearGradient>
<linearGradient id="paint12_linear_2904_50356" x1="3.77272" y1="182.06" x2="78.4427" y2="1.39049" gradientUnits="userSpaceOnUse">
<stop stop-color="#F7E57E"/>
<stop offset="0.08" stop-color="#B28238"/>
<stop offset="0.12" stop-color="#B98D40"/>
<stop offset="0.18" stop-color="#CEAB55"/>
<stop offset="0.24" stop-color="#E6CD6D"/>
<stop offset="0.39" stop-color="#F5EBA8"/>
<stop offset="0.5" stop-color="#FFFFD0"/>
<stop offset="0.62" stop-color="#FAF1A6"/>
<stop offset="0.73" stop-color="#F8E888"/>
<stop offset="0.79" stop-color="#F7E57E"/>
<stop offset="0.82" stop-color="#F3DF78"/>
<stop offset="0.87" stop-color="#E9CF69"/>
<stop offset="0.92" stop-color="#D8B450"/>
<stop offset="0.98" stop-color="#C08E2C"/>
</linearGradient>
<linearGradient id="paint13_linear_2904_50356" x1="3.22238" y1="181.831" x2="77.8824" y2="1.16066" gradientUnits="userSpaceOnUse">
<stop stop-color="#F7E57E"/>
<stop offset="0.08" stop-color="#B28238"/>
<stop offset="0.12" stop-color="#B98D40"/>
<stop offset="0.18" stop-color="#CEAB55"/>
<stop offset="0.24" stop-color="#E6CD6D"/>
<stop offset="0.39" stop-color="#F5EBA8"/>
<stop offset="0.5" stop-color="#FFFFD0"/>
<stop offset="0.62" stop-color="#FAF1A6"/>
<stop offset="0.73" stop-color="#F8E888"/>
<stop offset="0.79" stop-color="#F7E57E"/>
<stop offset="0.82" stop-color="#F3DF78"/>
<stop offset="0.87" stop-color="#E9CF69"/>
<stop offset="0.92" stop-color="#D8B450"/>
<stop offset="0.98" stop-color="#C08E2C"/>
</linearGradient>
<linearGradient id="paint14_linear_2904_50356" x1="2.62247" y1="181.581" x2="77.2825" y2="0.9106" gradientUnits="userSpaceOnUse">
<stop stop-color="#F7E57E"/>
<stop offset="0.08" stop-color="#B28238"/>
<stop offset="0.12" stop-color="#B98D40"/>
<stop offset="0.18" stop-color="#CEAB55"/>
<stop offset="0.24" stop-color="#E6CD6D"/>
<stop offset="0.39" stop-color="#F5EBA8"/>
<stop offset="0.5" stop-color="#FFFFD0"/>
<stop offset="0.62" stop-color="#FAF1A6"/>
<stop offset="0.73" stop-color="#F8E888"/>
<stop offset="0.79" stop-color="#F7E57E"/>
<stop offset="0.82" stop-color="#F3DF78"/>
<stop offset="0.87" stop-color="#E9CF69"/>
<stop offset="0.92" stop-color="#D8B450"/>
<stop offset="0.98" stop-color="#C08E2C"/>
</linearGradient>
<linearGradient id="paint15_linear_2904_50356" x1="1.98247" y1="181.321" x2="76.6524" y2="0.650652" gradientUnits="userSpaceOnUse">
<stop stop-color="#F7E57E"/>
<stop offset="0.08" stop-color="#B28238"/>
<stop offset="0.12" stop-color="#B98D40"/>
<stop offset="0.18" stop-color="#CEAB55"/>
<stop offset="0.24" stop-color="#E6CD6D"/>
<stop offset="0.39" stop-color="#F5EBA8"/>
<stop offset="0.5" stop-color="#FFFFD0"/>
<stop offset="0.62" stop-color="#FAF1A6"/>
<stop offset="0.73" stop-color="#F8E888"/>
<stop offset="0.79" stop-color="#F7E57E"/>
<stop offset="0.82" stop-color="#F3DF78"/>
<stop offset="0.87" stop-color="#E9CF69"/>
<stop offset="0.92" stop-color="#D8B450"/>
<stop offset="0.98" stop-color="#C08E2C"/>
</linearGradient>
<linearGradient id="paint16_linear_2904_50356" x1="-22.5368" y1="171.18" x2="52.1332" y2="-9.47966" gradientUnits="userSpaceOnUse">
<stop stop-color="#F7E57E"/>
<stop offset="0.08" stop-color="#B28238"/>
<stop offset="0.12" stop-color="#B98D40"/>
<stop offset="0.18" stop-color="#CEAB55"/>
<stop offset="0.24" stop-color="#E6CD6D"/>
<stop offset="0.39" stop-color="#F5EBA8"/>
<stop offset="0.5" stop-color="#FFFFD0"/>
<stop offset="0.62" stop-color="#FAF1A6"/>
<stop offset="0.73" stop-color="#F8E888"/>
<stop offset="0.79" stop-color="#F7E57E"/>
<stop offset="0.82" stop-color="#F3DF78"/>
<stop offset="0.87" stop-color="#E9CF69"/>
<stop offset="0.92" stop-color="#D8B450"/>
<stop offset="0.98" stop-color="#C08E2C"/>
</linearGradient>
<linearGradient id="paint17_linear_2904_50356" x1="-22.9175" y1="171.03" x2="51.7524" y2="-9.63962" gradientUnits="userSpaceOnUse">
<stop stop-color="#F7E57E"/>
<stop offset="0.08" stop-color="#B28238"/>
<stop offset="0.12" stop-color="#B98D40"/>
<stop offset="0.18" stop-color="#CEAB55"/>
<stop offset="0.24" stop-color="#E6CD6D"/>
<stop offset="0.39" stop-color="#F5EBA8"/>
<stop offset="0.5" stop-color="#FFFFD0"/>
<stop offset="0.62" stop-color="#FAF1A6"/>
<stop offset="0.73" stop-color="#F8E888"/>
<stop offset="0.79" stop-color="#F7E57E"/>
<stop offset="0.82" stop-color="#F3DF78"/>
<stop offset="0.87" stop-color="#E9CF69"/>
<stop offset="0.92" stop-color="#D8B450"/>
<stop offset="0.98" stop-color="#C08E2C"/>
</linearGradient>
<linearGradient id="paint18_linear_2904_50356" x1="-22.2069" y1="171.32" x2="52.4631" y2="-9.3496" gradientUnits="userSpaceOnUse">
<stop stop-color="#F7E57E"/>
<stop offset="0.08" stop-color="#B28238"/>
<stop offset="0.12" stop-color="#B98D40"/>
<stop offset="0.18" stop-color="#CEAB55"/>
<stop offset="0.24" stop-color="#E6CD6D"/>
<stop offset="0.39" stop-color="#F5EBA8"/>
<stop offset="0.5" stop-color="#FFFFD0"/>
<stop offset="0.62" stop-color="#FAF1A6"/>
<stop offset="0.73" stop-color="#F8E888"/>
<stop offset="0.79" stop-color="#F7E57E"/>
<stop offset="0.82" stop-color="#F3DF78"/>
<stop offset="0.87" stop-color="#E9CF69"/>
<stop offset="0.92" stop-color="#D8B450"/>
<stop offset="0.98" stop-color="#C08E2C"/>
</linearGradient>
<linearGradient id="paint19_linear_2904_50356" x1="-20.0067" y1="172.231" x2="54.6632" y2="-8.43948" gradientUnits="userSpaceOnUse">
<stop stop-color="#F7E57E"/>
<stop offset="0.08" stop-color="#B28238"/>
<stop offset="0.12" stop-color="#B98D40"/>
<stop offset="0.18" stop-color="#CEAB55"/>
<stop offset="0.24" stop-color="#E6CD6D"/>
<stop offset="0.39" stop-color="#F5EBA8"/>
<stop offset="0.5" stop-color="#FFFFD0"/>
<stop offset="0.62" stop-color="#FAF1A6"/>
<stop offset="0.73" stop-color="#F8E888"/>
<stop offset="0.79" stop-color="#F7E57E"/>
<stop offset="0.82" stop-color="#F3DF78"/>
<stop offset="0.87" stop-color="#E9CF69"/>
<stop offset="0.92" stop-color="#D8B450"/>
<stop offset="0.98" stop-color="#C08E2C"/>
</linearGradient>
<linearGradient id="paint20_linear_2904_50356" x1="-18.7273" y1="172.761" x2="55.9327" y2="-7.90931" gradientUnits="userSpaceOnUse">
<stop stop-color="#F7E57E"/>
<stop offset="0.08" stop-color="#B28238"/>
<stop offset="0.12" stop-color="#B98D40"/>
<stop offset="0.18" stop-color="#CEAB55"/>
<stop offset="0.24" stop-color="#E6CD6D"/>
<stop offset="0.39" stop-color="#F5EBA8"/>
<stop offset="0.5" stop-color="#FFFFD0"/>
<stop offset="0.62" stop-color="#FAF1A6"/>
<stop offset="0.73" stop-color="#F8E888"/>
<stop offset="0.79" stop-color="#F7E57E"/>
<stop offset="0.82" stop-color="#F3DF78"/>
<stop offset="0.87" stop-color="#E9CF69"/>
<stop offset="0.92" stop-color="#D8B450"/>
<stop offset="0.98" stop-color="#C08E2C"/>
</linearGradient>
<linearGradient id="paint21_linear_2904_50356" x1="-17.6573" y1="173.201" x2="57.0128" y2="-7.45958" gradientUnits="userSpaceOnUse">
<stop stop-color="#F7E57E"/>
<stop offset="0.08" stop-color="#B28238"/>
<stop offset="0.12" stop-color="#B98D40"/>
<stop offset="0.18" stop-color="#CEAB55"/>
<stop offset="0.24" stop-color="#E6CD6D"/>
<stop offset="0.39" stop-color="#F5EBA8"/>
<stop offset="0.5" stop-color="#FFFFD0"/>
<stop offset="0.62" stop-color="#FAF1A6"/>
<stop offset="0.73" stop-color="#F8E888"/>
<stop offset="0.79" stop-color="#F7E57E"/>
<stop offset="0.82" stop-color="#F3DF78"/>
<stop offset="0.87" stop-color="#E9CF69"/>
<stop offset="0.92" stop-color="#D8B450"/>
<stop offset="0.98" stop-color="#C08E2C"/>
</linearGradient>
<linearGradient id="paint22_linear_2904_50356" x1="-31.6068" y1="167.44" x2="43.0633" y2="-13.2296" gradientUnits="userSpaceOnUse">
<stop stop-color="#F7E57E"/>
<stop offset="0.08" stop-color="#B28238"/>
<stop offset="0.12" stop-color="#B98D40"/>
<stop offset="0.18" stop-color="#CEAB55"/>
<stop offset="0.24" stop-color="#E6CD6D"/>
<stop offset="0.39" stop-color="#F5EBA8"/>
<stop offset="0.5" stop-color="#FFFFD0"/>
<stop offset="0.62" stop-color="#FAF1A6"/>
<stop offset="0.73" stop-color="#F8E888"/>
<stop offset="0.79" stop-color="#F7E57E"/>
<stop offset="0.82" stop-color="#F3DF78"/>
<stop offset="0.87" stop-color="#E9CF69"/>
<stop offset="0.92" stop-color="#D8B450"/>
<stop offset="0.98" stop-color="#C08E2C"/>
</linearGradient>
<linearGradient id="paint23_linear_2904_50356" x1="-37.7467" y1="164.9" x2="36.9133" y2="-15.7695" gradientUnits="userSpaceOnUse">
<stop stop-color="#F7E57E"/>
<stop offset="0.08" stop-color="#B28238"/>
<stop offset="0.12" stop-color="#B98D40"/>
<stop offset="0.18" stop-color="#CEAB55"/>
<stop offset="0.24" stop-color="#E6CD6D"/>
<stop offset="0.39" stop-color="#F5EBA8"/>
<stop offset="0.5" stop-color="#FFFFD0"/>
<stop offset="0.62" stop-color="#FAF1A6"/>
<stop offset="0.73" stop-color="#F8E888"/>
<stop offset="0.79" stop-color="#F7E57E"/>
<stop offset="0.82" stop-color="#F3DF78"/>
<stop offset="0.87" stop-color="#E9CF69"/>
<stop offset="0.92" stop-color="#D8B450"/>
<stop offset="0.98" stop-color="#C08E2C"/>
</linearGradient>
<linearGradient id="paint24_linear_2904_50356" x1="-41.9374" y1="163.17" x2="32.7226" y2="-17.4995" gradientUnits="userSpaceOnUse">
<stop stop-color="#F7E57E"/>
<stop offset="0.08" stop-color="#B28238"/>
<stop offset="0.12" stop-color="#B98D40"/>
<stop offset="0.18" stop-color="#CEAB55"/>
<stop offset="0.24" stop-color="#E6CD6D"/>
<stop offset="0.39" stop-color="#F5EBA8"/>
<stop offset="0.5" stop-color="#FFFFD0"/>
<stop offset="0.62" stop-color="#FAF1A6"/>
<stop offset="0.73" stop-color="#F8E888"/>
<stop offset="0.79" stop-color="#F7E57E"/>
<stop offset="0.82" stop-color="#F3DF78"/>
<stop offset="0.87" stop-color="#E9CF69"/>
<stop offset="0.92" stop-color="#D8B450"/>
<stop offset="0.98" stop-color="#C08E2C"/>
</linearGradient>
<linearGradient id="paint25_linear_2904_50356" x1="-47.3767" y1="160.92" x2="27.2933" y2="-19.7496" gradientUnits="userSpaceOnUse">
<stop stop-color="#F7E57E"/>
<stop offset="0.08" stop-color="#B28238"/>
<stop offset="0.12" stop-color="#B98D40"/>
<stop offset="0.18" stop-color="#CEAB55"/>
<stop offset="0.24" stop-color="#E6CD6D"/>
<stop offset="0.39" stop-color="#F5EBA8"/>
<stop offset="0.5" stop-color="#FFFFD0"/>
<stop offset="0.62" stop-color="#FAF1A6"/>
<stop offset="0.73" stop-color="#F8E888"/>
<stop offset="0.79" stop-color="#F7E57E"/>
<stop offset="0.82" stop-color="#F3DF78"/>
<stop offset="0.87" stop-color="#E9CF69"/>
<stop offset="0.92" stop-color="#D8B450"/>
<stop offset="0.98" stop-color="#C08E2C"/>
</linearGradient>
<linearGradient id="paint26_linear_2904_50356" x1="-23.4172" y1="170.82" x2="51.2429" y2="-9.84959" gradientUnits="userSpaceOnUse">
<stop stop-color="#F7E57E"/>
<stop offset="0.08" stop-color="#B28238"/>
<stop offset="0.12" stop-color="#B98D40"/>
<stop offset="0.18" stop-color="#CEAB55"/>
<stop offset="0.24" stop-color="#E6CD6D"/>
<stop offset="0.39" stop-color="#F5EBA8"/>
<stop offset="0.5" stop-color="#FFFFD0"/>
<stop offset="0.62" stop-color="#FAF1A6"/>
<stop offset="0.73" stop-color="#F8E888"/>
<stop offset="0.79" stop-color="#F7E57E"/>
<stop offset="0.82" stop-color="#F3DF78"/>
<stop offset="0.87" stop-color="#E9CF69"/>
<stop offset="0.92" stop-color="#D8B450"/>
<stop offset="0.98" stop-color="#C08E2C"/>
</linearGradient>
<linearGradient id="paint27_linear_2904_50356" x1="-20.2471" y1="172.13" x2="54.4229" y2="-8.53951" gradientUnits="userSpaceOnUse">
<stop stop-color="#F7E57E"/>
<stop offset="0.08" stop-color="#B28238"/>
<stop offset="0.12" stop-color="#B98D40"/>
<stop offset="0.18" stop-color="#CEAB55"/>
<stop offset="0.24" stop-color="#E6CD6D"/>
<stop offset="0.39" stop-color="#F5EBA8"/>
<stop offset="0.5" stop-color="#FFFFD0"/>
<stop offset="0.62" stop-color="#FAF1A6"/>
<stop offset="0.73" stop-color="#F8E888"/>
<stop offset="0.79" stop-color="#F7E57E"/>
<stop offset="0.82" stop-color="#F3DF78"/>
<stop offset="0.87" stop-color="#E9CF69"/>
<stop offset="0.92" stop-color="#D8B450"/>
<stop offset="0.98" stop-color="#C08E2C"/>
</linearGradient>
<linearGradient id="paint28_linear_2904_50356" x1="-15.6569" y1="174.03" x2="59.0131" y2="-6.63963" gradientUnits="userSpaceOnUse">
<stop stop-color="#F7E57E"/>
<stop offset="0.08" stop-color="#B28238"/>
<stop offset="0.12" stop-color="#B98D40"/>
<stop offset="0.18" stop-color="#CEAB55"/>
<stop offset="0.24" stop-color="#E6CD6D"/>
<stop offset="0.39" stop-color="#F5EBA8"/>
<stop offset="0.5" stop-color="#FFFFD0"/>
<stop offset="0.62" stop-color="#FAF1A6"/>
<stop offset="0.73" stop-color="#F8E888"/>
<stop offset="0.79" stop-color="#F7E57E"/>
<stop offset="0.82" stop-color="#F3DF78"/>
<stop offset="0.87" stop-color="#E9CF69"/>
<stop offset="0.92" stop-color="#D8B450"/>
<stop offset="0.98" stop-color="#C08E2C"/>
</linearGradient>
<linearGradient id="paint29_linear_2904_50356" x1="-10.8275" y1="176.02" x2="63.8424" y2="-4.63963" gradientUnits="userSpaceOnUse">
<stop stop-color="#F7E57E"/>
<stop offset="0.08" stop-color="#B28238"/>
<stop offset="0.12" stop-color="#B98D40"/>
<stop offset="0.18" stop-color="#CEAB55"/>
<stop offset="0.24" stop-color="#E6CD6D"/>
<stop offset="0.39" stop-color="#F5EBA8"/>
<stop offset="0.5" stop-color="#FFFFD0"/>
<stop offset="0.62" stop-color="#FAF1A6"/>
<stop offset="0.73" stop-color="#F8E888"/>
<stop offset="0.79" stop-color="#F7E57E"/>
<stop offset="0.82" stop-color="#F3DF78"/>
<stop offset="0.87" stop-color="#E9CF69"/>
<stop offset="0.92" stop-color="#D8B450"/>
<stop offset="0.98" stop-color="#C08E2C"/>
</linearGradient>
<linearGradient id="paint30_linear_2904_50356" x1="-3.24691" y1="179.16" x2="71.4231" y2="-1.50958" gradientUnits="userSpaceOnUse">
<stop stop-color="#F7E57E"/>
<stop offset="0.08" stop-color="#B28238"/>
<stop offset="0.12" stop-color="#B98D40"/>
<stop offset="0.18" stop-color="#CEAB55"/>
<stop offset="0.24" stop-color="#E6CD6D"/>
<stop offset="0.39" stop-color="#F5EBA8"/>
<stop offset="0.5" stop-color="#FFFFD0"/>
<stop offset="0.62" stop-color="#FAF1A6"/>
<stop offset="0.73" stop-color="#F8E888"/>
<stop offset="0.79" stop-color="#F7E57E"/>
<stop offset="0.82" stop-color="#F3DF78"/>
<stop offset="0.87" stop-color="#E9CF69"/>
<stop offset="0.92" stop-color="#D8B450"/>
<stop offset="0.98" stop-color="#C08E2C"/>
</linearGradient>
<linearGradient id="paint31_linear_2904_50356" x1="-8.11691" y1="177.14" x2="66.5531" y2="-3.51957" gradientUnits="userSpaceOnUse">
<stop stop-color="#F7E57E"/>
<stop offset="0.08" stop-color="#B28238"/>
<stop offset="0.12" stop-color="#B98D40"/>
<stop offset="0.18" stop-color="#CEAB55"/>
<stop offset="0.24" stop-color="#E6CD6D"/>
<stop offset="0.39" stop-color="#F5EBA8"/>
<stop offset="0.5" stop-color="#FFFFD0"/>
<stop offset="0.62" stop-color="#FAF1A6"/>
<stop offset="0.73" stop-color="#F8E888"/>
<stop offset="0.79" stop-color="#F7E57E"/>
<stop offset="0.82" stop-color="#F3DF78"/>
<stop offset="0.87" stop-color="#E9CF69"/>
<stop offset="0.92" stop-color="#D8B450"/>
<stop offset="0.98" stop-color="#C08E2C"/>
</linearGradient>
<linearGradient id="paint32_linear_2904_50356" x1="-0.997116" y1="180.091" x2="73.6729" y2="-0.579475" gradientUnits="userSpaceOnUse">
<stop stop-color="#F7E57E"/>
<stop offset="0.08" stop-color="#B28238"/>
<stop offset="0.12" stop-color="#B98D40"/>
<stop offset="0.18" stop-color="#CEAB55"/>
<stop offset="0.24" stop-color="#E6CD6D"/>
<stop offset="0.39" stop-color="#F5EBA8"/>
<stop offset="0.5" stop-color="#FFFFD0"/>
<stop offset="0.62" stop-color="#FAF1A6"/>
<stop offset="0.73" stop-color="#F8E888"/>
<stop offset="0.79" stop-color="#F7E57E"/>
<stop offset="0.82" stop-color="#F3DF78"/>
<stop offset="0.87" stop-color="#E9CF69"/>
<stop offset="0.92" stop-color="#D8B450"/>
<stop offset="0.98" stop-color="#C08E2C"/>
</linearGradient>
<linearGradient id="paint33_linear_2904_50356" x1="4.18289" y1="182.231" x2="78.8529" y2="1.56057" gradientUnits="userSpaceOnUse">
<stop stop-color="#F7E57E"/>
<stop offset="0.08" stop-color="#B28238"/>
<stop offset="0.12" stop-color="#B98D40"/>
<stop offset="0.18" stop-color="#CEAB55"/>
<stop offset="0.24" stop-color="#E6CD6D"/>
<stop offset="0.39" stop-color="#F5EBA8"/>
<stop offset="0.5" stop-color="#FFFFD0"/>
<stop offset="0.62" stop-color="#FAF1A6"/>
<stop offset="0.73" stop-color="#F8E888"/>
<stop offset="0.79" stop-color="#F7E57E"/>
<stop offset="0.82" stop-color="#F3DF78"/>
<stop offset="0.87" stop-color="#E9CF69"/>
<stop offset="0.92" stop-color="#D8B450"/>
<stop offset="0.98" stop-color="#C08E2C"/>
</linearGradient>
<linearGradient id="paint34_linear_2904_50356" x1="8.76247" y1="184.121" x2="83.4325" y2="3.46056" gradientUnits="userSpaceOnUse">
<stop stop-color="#F7E57E"/>
<stop offset="0.08" stop-color="#B28238"/>
<stop offset="0.12" stop-color="#B98D40"/>
<stop offset="0.18" stop-color="#CEAB55"/>
<stop offset="0.24" stop-color="#E6CD6D"/>
<stop offset="0.39" stop-color="#F5EBA8"/>
<stop offset="0.5" stop-color="#FFFFD0"/>
<stop offset="0.62" stop-color="#FAF1A6"/>
<stop offset="0.73" stop-color="#F8E888"/>
<stop offset="0.79" stop-color="#F7E57E"/>
<stop offset="0.82" stop-color="#F3DF78"/>
<stop offset="0.87" stop-color="#E9CF69"/>
<stop offset="0.92" stop-color="#D8B450"/>
<stop offset="0.98" stop-color="#C08E2C"/>
</linearGradient>
<linearGradient id="paint35_linear_2904_50356" x1="14.3229" y1="186.42" x2="88.9829" y2="5.75034" gradientUnits="userSpaceOnUse">
<stop stop-color="#F7E57E"/>
<stop offset="0.08" stop-color="#B28238"/>
<stop offset="0.12" stop-color="#B98D40"/>
<stop offset="0.18" stop-color="#CEAB55"/>
<stop offset="0.24" stop-color="#E6CD6D"/>
<stop offset="0.39" stop-color="#F5EBA8"/>
<stop offset="0.5" stop-color="#FFFFD0"/>
<stop offset="0.62" stop-color="#FAF1A6"/>
<stop offset="0.73" stop-color="#F8E888"/>
<stop offset="0.79" stop-color="#F7E57E"/>
<stop offset="0.82" stop-color="#F3DF78"/>
<stop offset="0.87" stop-color="#E9CF69"/>
<stop offset="0.92" stop-color="#D8B450"/>
<stop offset="0.98" stop-color="#C08E2C"/>
</linearGradient>
<linearGradient id="paint36_linear_2904_50356" x1="19.5127" y1="188.57" x2="94.1828" y2="7.90026" gradientUnits="userSpaceOnUse">
<stop stop-color="#F7E57E"/>
<stop offset="0.08" stop-color="#B28238"/>
<stop offset="0.12" stop-color="#B98D40"/>
<stop offset="0.18" stop-color="#CEAB55"/>
<stop offset="0.24" stop-color="#E6CD6D"/>
<stop offset="0.39" stop-color="#F5EBA8"/>
<stop offset="0.5" stop-color="#FFFFD0"/>
<stop offset="0.62" stop-color="#FAF1A6"/>
<stop offset="0.73" stop-color="#F8E888"/>
<stop offset="0.79" stop-color="#F7E57E"/>
<stop offset="0.82" stop-color="#F3DF78"/>
<stop offset="0.87" stop-color="#E9CF69"/>
<stop offset="0.92" stop-color="#D8B450"/>
<stop offset="0.98" stop-color="#C08E2C"/>
</linearGradient>
<linearGradient id="paint37_linear_2904_50356" x1="25.2824" y1="190.951" x2="99.9524" y2="10.2806" gradientUnits="userSpaceOnUse">
<stop stop-color="#F7E57E"/>
<stop offset="0.08" stop-color="#B28238"/>
<stop offset="0.12" stop-color="#B98D40"/>
<stop offset="0.18" stop-color="#CEAB55"/>
<stop offset="0.24" stop-color="#E6CD6D"/>
<stop offset="0.39" stop-color="#F5EBA8"/>
<stop offset="0.5" stop-color="#FFFFD0"/>
<stop offset="0.62" stop-color="#FAF1A6"/>
<stop offset="0.73" stop-color="#F8E888"/>
<stop offset="0.79" stop-color="#F7E57E"/>
<stop offset="0.82" stop-color="#F3DF78"/>
<stop offset="0.87" stop-color="#E9CF69"/>
<stop offset="0.92" stop-color="#D8B450"/>
<stop offset="0.98" stop-color="#C08E2C"/>
</linearGradient>
<linearGradient id="paint38_linear_2904_50356" x1="31.1232" y1="193.36" x2="105.793" y2="12.6905" gradientUnits="userSpaceOnUse">
<stop stop-color="#F7E57E"/>
<stop offset="0.08" stop-color="#B28238"/>
<stop offset="0.12" stop-color="#B98D40"/>
<stop offset="0.18" stop-color="#CEAB55"/>
<stop offset="0.24" stop-color="#E6CD6D"/>
<stop offset="0.39" stop-color="#F5EBA8"/>
<stop offset="0.5" stop-color="#FFFFD0"/>
<stop offset="0.62" stop-color="#FAF1A6"/>
<stop offset="0.73" stop-color="#F8E888"/>
<stop offset="0.79" stop-color="#F7E57E"/>
<stop offset="0.82" stop-color="#F3DF78"/>
<stop offset="0.87" stop-color="#E9CF69"/>
<stop offset="0.92" stop-color="#D8B450"/>
<stop offset="0.98" stop-color="#C08E2C"/>
</linearGradient>
</defs>
</svg>
