<svg width="111" height="230" viewBox="0 0 111 232" fill="none" xmlns="http://www.w3.org/2000/svg">
<path d="M109.63 213.11H84.7698V1.08975C84.7698 0.629752 84.3898 0.259766 83.9398 0.259766H27.2198C26.7598 0.259766 26.3898 0.629752 26.3898 1.08975C26.3998 71.5698 26.3998 142.03 26.3998 212.51C17.8798 212.51 9.35979 212.5 0.83979 212.49C0.81979 213.3 0.799785 214.11 0.779785 214.91H4.74979L4.84978 230.77C17.1698 230.8 29.4998 230.83 41.8198 230.85C41.8198 230.87 41.8198 230.89 41.8198 230.9C48.9798 230.92 56.1398 230.95 63.2998 230.97C63.3298 230.98 63.3598 230.99 63.3998 230.99L108.2 230.93L108.28 219.19H108.25V215.44H109.63C109.93 215.44 110.18 215.19 110.18 214.89V213.65C110.18 213.35 109.93 213.1 109.63 213.1V213.11ZM68.1398 50.6098C63.8198 67.3698 57.0698 74.4698 55.1098 74.4698C53.0298 74.4698 48.6898 71.4297 43.0098 51.0898C37.4698 31.2698 35.9698 16.3898 35.6298 12.0798C39.7098 10.8798 47.8298 8.84976 55.8298 8.84976C64.3298 8.84976 72.1198 10.7198 75.4898 11.6598C74.8298 16.1998 71.8598 36.1998 68.1398 50.6098Z" style="--orig-fill: url(#paint0_linear_2904_41360)"/>
<defs>
<linearGradient id="paint0_linear_2904_41360" x1="8.28979" y1="48.3798" x2="100.28" y2="218.31" gradientUnits="userSpaceOnUse">
<stop stop-color="#F7E57E"/>
<stop offset="0.08" stop-color="#B28238"/>
<stop offset="0.12" stop-color="#B98D40"/>
<stop offset="0.18" stop-color="#CEAB55"/>
<stop offset="0.24" stop-color="#E6CD6D"/>
<stop offset="0.39" stop-color="#F5EBA8"/>
<stop offset="0.5" stop-color="#FFFFD0"/>
<stop offset="0.62" stop-color="#FAF1A6"/>
<stop offset="0.73" stop-color="#F8E888"/>
<stop offset="0.79" stop-color="#F7E57E"/>
<stop offset="0.82" stop-color="#F3DF78"/>
<stop offset="0.87" stop-color="#E9CF69"/>
<stop offset="0.92" stop-color="#D8B450"/>
<stop offset="0.98" stop-color="#C08E2C"/>
</linearGradient>
</defs>
</svg>
